<svg id="Capa_1" data-name="Capa 1" xmlns="http://www.w3.org/2000/svg" xmlns:xlink="http://www.w3.org/1999/xlink" viewBox="0 0 881.09 615.24">
  <defs>
    <style>
      .cls-1, .cls-13, .cls-19, .cls-6, .cls-7 {
        fill: none;
      }

      .cls-1, .cls-19 {
        stroke: #fff;
      }

      .cls-1, .cls-12, .cls-13, .cls-19, .cls-6, .cls-7 {
        stroke-miterlimit: 10;
      }

      .cls-1 {
        stroke-width: 5px;
      }

      .cls-2 {
        fill: url(#linear-gradient);
      }

      .cls-3 {
        fill: #0020a0;
      }

      .cls-4 {
        fill: #9dad00;
      }

      .cls-5 {
        fill: #d50614;
      }

      .cls-6 {
        stroke: #1c1c1b;
      }

      .cls-6, .cls-7 {
        stroke-width: 3px;
      }

      .cls-7 {
        stroke: #0020a0;
      }

      .cls-8 {
        fill: #141015;
      }

      .cls-9 {
        fill: #fff;
      }

      .cls-10 {
        fill: url(#radial-gradient);
      }

      .cls-11, .cls-12 {
        fill: #f5f7e5;
      }

      .cls-12, .cls-13 {
        stroke: #c7a87f;
      }

      .cls-14 {
        clip-path: url(#clip-path);
      }

      .cls-15 {
        fill: #42d3d9;
      }

      .cls-16 {
        fill: #e6eabf;
      }

      .cls-17 {
        fill: #d8de99;
      }

      .cls-18 {
        fill: #1c1c1b;
      }

      .cls-19 {
        stroke-width: 2px;
      }
    </style>
    <linearGradient id="linear-gradient" x1="221.67" y1="153.12" x2="221.67" y2="274.5" gradientUnits="userSpaceOnUse">
      <stop offset="0" stop-color="#f5f7e5"/>
      <stop offset="1" stop-color="#42d3d9"/>
    </linearGradient>
    <radialGradient id="radial-gradient" cx="666.85" cy="178.64" r="138" gradientUnits="userSpaceOnUse">
      <stop offset="0" stop-color="#42d3d9"/>
      <stop offset="1" stop-color="#f5f7e5"/>
    </radialGradient>
    <clipPath id="clip-path">
      <circle class="cls-1" cx="508.57" cy="316.65" r="90.95"/>
    </clipPath>
  </defs>
  <title>infografia</title>
  <g>
    <polygon class="cls-2" points="0 243.78 102.79 270.92 186.79 245.62 232.79 274.5 211.13 238.98 273.03 221.09 333.55 221.76 353.69 199.98 443.33 199.98 443.33 153.12 0 153.12 0 243.78"/>
    <circle class="cls-3" cx="290.96" cy="268.08" r="6.42"/>
    <g>
      <path class="cls-3" d="M309,268.82h-3.57l-0.8,2.23h-1.16l3.26-8.53h1l3.26,8.53h-1.15Zm-3.23-.92h2.9l-1.45-4Z"/>
      <path class="cls-3" d="M314.54,271.17a2.77,2.77,0,0,1-2.1-.85,3.14,3.14,0,0,1-.81-2.26v-0.2a3.8,3.8,0,0,1,.36-1.68,2.81,2.81,0,0,1,1-1.16,2.53,2.53,0,0,1,1.4-.42,2.37,2.37,0,0,1,1.92.81,3.53,3.53,0,0,1,.69,2.33v0.45h-4.29a2.25,2.25,0,0,0,.55,1.51,1.72,1.72,0,0,0,1.33.58,1.89,1.89,0,0,0,1-.23,2.44,2.44,0,0,0,.7-0.62l0.66,0.52A2.66,2.66,0,0,1,314.54,271.17Zm-0.13-5.68a1.45,1.45,0,0,0-1.1.48,2.32,2.32,0,0,0-.55,1.34h3.18v-0.08a2.06,2.06,0,0,0-.45-1.28A1.36,1.36,0,0,0,314.41,265.49Z"/>
      <path class="cls-3" d="M321.33,265.69a3.25,3.25,0,0,0-.53,0,1.43,1.43,0,0,0-1.45.91v4.5h-1.08v-6.34h1.05l0,0.73a1.69,1.69,0,0,1,1.51-.85,1.11,1.11,0,0,1,.48.08v1Z"/>
      <path class="cls-3" d="M321.92,267.83a3.74,3.74,0,0,1,.37-1.68,2.73,2.73,0,0,1,1-1.15,2.78,2.78,0,0,1,1.49-.4,2.67,2.67,0,0,1,2.09.9,3.45,3.45,0,0,1,.8,2.38V268a3.78,3.78,0,0,1-.35,1.66,2.69,2.69,0,0,1-1,1.15,2.81,2.81,0,0,1-1.51.41,2.67,2.67,0,0,1-2.09-.9,3.43,3.43,0,0,1-.8-2.37v-0.08ZM323,268a2.71,2.71,0,0,0,.49,1.69,1.66,1.66,0,0,0,2.62,0,3,3,0,0,0,.49-1.81,2.71,2.71,0,0,0-.5-1.69,1.57,1.57,0,0,0-1.32-.65,1.56,1.56,0,0,0-1.29.64A2.94,2.94,0,0,0,323,268Z"/>
      <path class="cls-3" d="M334.41,268a3.8,3.8,0,0,1-.66,2.33,2.12,2.12,0,0,1-1.79.88,2.33,2.33,0,0,1-1.82-.73v3.05h-1.08v-8.78h1l0.05,0.7a2.23,2.23,0,0,1,1.84-.82,2.16,2.16,0,0,1,1.81.86,3.84,3.84,0,0,1,.67,2.4V268Zm-1.08-.12a2.8,2.8,0,0,0-.46-1.69,1.47,1.47,0,0,0-1.25-.62,1.59,1.59,0,0,0-1.48.87v3a1.6,1.6,0,0,0,1.49.87,1.47,1.47,0,0,0,1.24-.62A3.06,3.06,0,0,0,333.33,267.83Z"/>
      <path class="cls-3" d="M339.7,270.43a2.3,2.3,0,0,1-1.86.74,2,2,0,0,1-1.54-.59,2.55,2.55,0,0,1-.54-1.74v-4.12h1.08v4.1q0,1.44,1.17,1.44a1.62,1.62,0,0,0,1.65-.93v-4.61h1.08v6.34h-1Z"/>
      <path class="cls-3" d="M345,271.17a2.77,2.77,0,0,1-2.1-.85,3.14,3.14,0,0,1-.81-2.26v-0.2a3.8,3.8,0,0,1,.36-1.68,2.81,2.81,0,0,1,1-1.16,2.53,2.53,0,0,1,1.4-.42,2.37,2.37,0,0,1,1.92.81,3.53,3.53,0,0,1,.69,2.33v0.45h-4.29a2.25,2.25,0,0,0,.55,1.51,1.72,1.72,0,0,0,1.33.58,1.89,1.89,0,0,0,1-.23,2.44,2.44,0,0,0,.7-0.62l0.66,0.52A2.66,2.66,0,0,1,345,271.17Zm-0.13-5.68a1.45,1.45,0,0,0-1.1.48,2.32,2.32,0,0,0-.55,1.34h3.18v-0.08a2.06,2.06,0,0,0-.45-1.28A1.36,1.36,0,0,0,344.9,265.49Z"/>
      <path class="cls-3" d="M351.83,265.69a3.25,3.25,0,0,0-.53,0,1.43,1.43,0,0,0-1.45.91v4.5h-1.08v-6.34h1.05l0,0.73a1.69,1.69,0,0,1,1.51-.85,1.11,1.11,0,0,1,.48.08v1Z"/>
      <path class="cls-3" d="M354.58,263.18v1.54h1.18v0.84h-1.18v3.94a0.88,0.88,0,0,0,.16.57,0.67,0.67,0,0,0,.54.19,2.62,2.62,0,0,0,.52-0.07v0.87a3.18,3.18,0,0,1-.83.12,1.35,1.35,0,0,1-1.1-.44,1.89,1.89,0,0,1-.37-1.25v-3.93h-1.15v-0.84h1.15v-1.54h1.08Z"/>
      <path class="cls-3" d="M356.63,267.83a3.74,3.74,0,0,1,.37-1.68,2.73,2.73,0,0,1,1-1.15,2.78,2.78,0,0,1,1.49-.4,2.67,2.67,0,0,1,2.09.9,3.45,3.45,0,0,1,.8,2.38V268a3.78,3.78,0,0,1-.35,1.66,2.69,2.69,0,0,1-1,1.15,2.81,2.81,0,0,1-1.51.41,2.67,2.67,0,0,1-2.09-.9,3.43,3.43,0,0,1-.8-2.37v-0.08Zm1.09,0.13a2.71,2.71,0,0,0,.49,1.69,1.66,1.66,0,0,0,2.62,0,3,3,0,0,0,.49-1.81,2.71,2.71,0,0,0-.5-1.69,1.57,1.57,0,0,0-1.32-.65,1.56,1.56,0,0,0-1.29.64A2.94,2.94,0,0,0,357.72,268Z"/>
      <path class="cls-3" d="M366.47,267.83a3.71,3.71,0,0,1,.69-2.35,2.35,2.35,0,0,1,3.57-.13v-3.3h1.08v9h-1l-0.05-.68a2.21,2.21,0,0,1-1.81.8,2.17,2.17,0,0,1-1.8-.9,3.76,3.76,0,0,1-.69-2.36v-0.08Zm1.08,0.12a2.81,2.81,0,0,0,.45,1.69,1.44,1.44,0,0,0,1.23.61,1.58,1.58,0,0,0,1.51-.93v-2.91a1.59,1.59,0,0,0-1.49-.9,1.45,1.45,0,0,0-1.24.62A3.1,3.1,0,0,0,367.55,268Z"/>
      <path class="cls-3" d="M376.13,271.17a2.77,2.77,0,0,1-2.1-.85,3.14,3.14,0,0,1-.81-2.26v-0.2a3.8,3.8,0,0,1,.36-1.68,2.81,2.81,0,0,1,1-1.16,2.53,2.53,0,0,1,1.4-.42,2.37,2.37,0,0,1,1.92.81,3.53,3.53,0,0,1,.69,2.33v0.45h-4.29a2.25,2.25,0,0,0,.55,1.51,1.72,1.72,0,0,0,1.33.58,1.89,1.89,0,0,0,1-.23,2.44,2.44,0,0,0,.7-0.62l0.66,0.52A2.66,2.66,0,0,1,376.13,271.17ZM376,265.49a1.45,1.45,0,0,0-1.1.48,2.32,2.32,0,0,0-.55,1.34h3.18v-0.08a2.06,2.06,0,0,0-.45-1.28A1.36,1.36,0,0,0,376,265.49Z"/>
      <path class="cls-3" d="M305.38,284.13h4v0.92h-5.17v-8.53h1.13v7.61Z"/>
      <path class="cls-3" d="M310.25,281.83a3.74,3.74,0,0,1,.37-1.68,2.73,2.73,0,0,1,1-1.15,2.78,2.78,0,0,1,1.49-.4,2.67,2.67,0,0,1,2.09.9,3.45,3.45,0,0,1,.8,2.38V282a3.78,3.78,0,0,1-.35,1.66,2.69,2.69,0,0,1-1,1.15,2.81,2.81,0,0,1-1.51.41,2.67,2.67,0,0,1-2.09-.9,3.43,3.43,0,0,1-.8-2.37v-0.08Zm1.09,0.13a2.71,2.71,0,0,0,.49,1.69,1.66,1.66,0,0,0,2.62,0,3,3,0,0,0,.49-1.81,2.71,2.71,0,0,0-.5-1.69,1.57,1.57,0,0,0-1.32-.65,1.56,1.56,0,0,0-1.29.64A2.94,2.94,0,0,0,311.34,282Z"/>
      <path class="cls-3" d="M317.39,277a0.65,0.65,0,0,1,.16-0.45,0.6,0.6,0,0,1,.48-0.18,0.61,0.61,0,0,1,.48.18,0.64,0.64,0,0,1,.16.45,0.62,0.62,0,0,1-.16.44,0.63,0.63,0,0,1-.48.18,0.62,0.62,0,0,1-.48-0.18A0.63,0.63,0,0,1,317.39,277Zm1.17,8h-1.08v-6.34h1.08v6.34Z"/>
      <path class="cls-3" d="M324.21,284.43a2.3,2.3,0,0,1-1.86.74,2,2,0,0,1-1.54-.59,2.55,2.55,0,0,1-.54-1.74v-4.12h1.08v4.1q0,1.44,1.17,1.44a1.62,1.62,0,0,0,1.65-.93v-4.61h1.08v6.34h-1Z"/>
      <path class="cls-3" d="M329.84,281.59a9.06,9.06,0,0,1,.35-2.54,7.39,7.39,0,0,1,1.06-2.21,4.5,4.5,0,0,1,1.46-1.41l0.22,0.71a4.67,4.67,0,0,0-1.4,2,8.69,8.69,0,0,0-.6,3v0.5a8.73,8.73,0,0,0,.83,3.93,4.69,4.69,0,0,0,1.18,1.56l-0.22.66a4.64,4.64,0,0,1-1.49-1.45A8.14,8.14,0,0,1,329.84,281.59Z"/>
      <path class="cls-3" d="M334.15,285.05v-8.53h2.79a3.24,3.24,0,0,1,2.09.57,2.07,2.07,0,0,1,.7,1.7,1.73,1.73,0,0,1-.34,1.06,2.2,2.2,0,0,1-.93.71,2,2,0,0,1,1.09.74,2.11,2.11,0,0,1,.4,1.29,2.28,2.28,0,0,1-.74,1.8,3.08,3.08,0,0,1-2.1.66h-3Zm1.13-4.89H337a1.78,1.78,0,0,0,1.18-.37,1.24,1.24,0,0,0,.44-1,1.22,1.22,0,0,0-.41-1,2,2,0,0,0-1.25-.32h-1.66v2.72Zm0,0.9v3.07h1.86a1.79,1.79,0,0,0,1.24-.41,1.56,1.56,0,0,0-1.22-2.66h-1.87Z"/>
      <path class="cls-3" d="M341.46,277a0.65,0.65,0,0,1,.16-0.45,0.6,0.6,0,0,1,.48-0.18,0.61,0.61,0,0,1,.48.18,0.64,0.64,0,0,1,.16.45,0.62,0.62,0,0,1-.16.44,0.63,0.63,0,0,1-.48.18,0.62,0.62,0,0,1-.48-0.18A0.63,0.63,0,0,1,341.46,277Zm1.17,8h-1.08v-6.34h1.08v6.34Z"/>
      <path class="cls-3" d="M345.39,284.17h3.71v0.88h-5v-0.8l3.5-4.65h-3.45v-0.9h4.8v0.77Z"/>
      <path class="cls-3" d="M352.08,282.12l-0.68.71v2.23h-1.08v-9h1.08v5.44l0.58-.7,2-2.09h1.32l-2.47,2.65,2.75,3.69h-1.27Z"/>
      <path class="cls-3" d="M360.31,285.05a2.28,2.28,0,0,1-.15-0.67,2.42,2.42,0,0,1-1.8.79,2.24,2.24,0,0,1-1.54-.53,1.72,1.72,0,0,1-.6-1.34,1.79,1.79,0,0,1,.75-1.54,3.55,3.55,0,0,1,2.12-.55h1.05v-0.5a1.22,1.22,0,0,0-.34-0.91,1.37,1.37,0,0,0-1-.34,1.58,1.58,0,0,0-1,.29,0.86,0.86,0,0,0-.39.71h-1.09a1.5,1.5,0,0,1,.34-0.92,2.3,2.3,0,0,1,.91-0.7,3.08,3.08,0,0,1,1.27-.26,2.51,2.51,0,0,1,1.72.55,2,2,0,0,1,.64,1.51v2.92a3.57,3.57,0,0,0,.22,1.39v0.09h-1.14Zm-1.8-.83a1.91,1.91,0,0,0,1-.26,1.59,1.59,0,0,0,.66-0.69V282h-0.85q-2,0-2,1.17a1,1,0,0,0,.34.8A1.31,1.31,0,0,0,358.51,284.23Z"/>
      <path class="cls-3" d="M362.93,277a0.65,0.65,0,0,1,.16-0.45,0.6,0.6,0,0,1,.48-0.18,0.61,0.61,0,0,1,.48.18,0.64,0.64,0,0,1,.16.45,0.62,0.62,0,0,1-.16.44,0.63,0.63,0,0,1-.48.18,0.62,0.62,0,0,1-.48-0.18A0.63,0.63,0,0,1,362.93,277Zm1.17,8H363v-6.34h1.08v6.34Z"/>
      <path class="cls-3" d="M369.75,285.05a2.28,2.28,0,0,1-.15-0.67,2.42,2.42,0,0,1-1.8.79,2.24,2.24,0,0,1-1.54-.53,1.72,1.72,0,0,1-.6-1.34,1.79,1.79,0,0,1,.75-1.54,3.55,3.55,0,0,1,2.12-.55h1.05v-0.5a1.22,1.22,0,0,0-.34-0.91,1.37,1.37,0,0,0-1-.34,1.58,1.58,0,0,0-1,.29,0.86,0.86,0,0,0-.39.71h-1.09a1.5,1.5,0,0,1,.34-0.92,2.3,2.3,0,0,1,.91-0.7,3.08,3.08,0,0,1,1.27-.26,2.51,2.51,0,0,1,1.72.55,2,2,0,0,1,.64,1.51v2.92a3.57,3.57,0,0,0,.22,1.39v0.09h-1.14Zm-1.8-.83a1.91,1.91,0,0,0,1-.26,1.59,1.59,0,0,0,.66-0.69V282h-0.85q-2,0-2,1.17a1,1,0,0,0,.34.8A1.31,1.31,0,0,0,368,284.23Z"/>
      <path class="cls-3" d="M374.86,281.65a9.06,9.06,0,0,1-.34,2.5,7.41,7.41,0,0,1-1,2.21,4.6,4.6,0,0,1-1.48,1.44l-0.23-.66a4.71,4.71,0,0,0,1.45-2.15,9.29,9.29,0,0,0,.56-3.23v-0.19a9.65,9.65,0,0,0-.26-2.29,7.72,7.72,0,0,0-.72-1.9,4.38,4.38,0,0,0-1-1.31l0.23-.66a4.58,4.58,0,0,1,1.47,1.43,7.42,7.42,0,0,1,1,2.21A9.27,9.27,0,0,1,374.86,281.65Z"/>
    </g>
    <g>
      <path class="cls-3" d="M347.43,596.25h-3.57l-0.8,2.23h-1.16l3.26-8.53h1l3.26,8.53h-1.15Zm-3.23-.92h2.9l-1.45-4Z"/>
      <path class="cls-3" d="M353,598.6a2.77,2.77,0,0,1-2.1-.85,3.14,3.14,0,0,1-.81-2.26v-0.2a3.8,3.8,0,0,1,.36-1.68,2.81,2.81,0,0,1,1-1.16,2.53,2.53,0,0,1,1.4-.42,2.37,2.37,0,0,1,1.92.81,3.53,3.53,0,0,1,.69,2.33v0.45h-4.29a2.25,2.25,0,0,0,.55,1.51,1.72,1.72,0,0,0,1.33.58,1.89,1.89,0,0,0,1-.23,2.44,2.44,0,0,0,.7-0.62l0.66,0.52A2.66,2.66,0,0,1,353,598.6Zm-0.13-5.68a1.45,1.45,0,0,0-1.1.48,2.32,2.32,0,0,0-.55,1.34h3.18v-0.08a2.06,2.06,0,0,0-.45-1.28A1.36,1.36,0,0,0,352.88,592.92Z"/>
      <path class="cls-3" d="M359.8,593.12a3.25,3.25,0,0,0-.53,0,1.43,1.43,0,0,0-1.45.91v4.5h-1.08v-6.34h1.05l0,0.73a1.69,1.69,0,0,1,1.51-.85,1.11,1.11,0,0,1,.48.08v1Z"/>
      <path class="cls-3" d="M360.39,595.26a3.74,3.74,0,0,1,.37-1.68,2.73,2.73,0,0,1,1-1.15,2.78,2.78,0,0,1,1.49-.4,2.67,2.67,0,0,1,2.09.9,3.45,3.45,0,0,1,.8,2.38v0.08a3.78,3.78,0,0,1-.35,1.66,2.69,2.69,0,0,1-1,1.15,2.81,2.81,0,0,1-1.51.41,2.67,2.67,0,0,1-2.09-.9,3.43,3.43,0,0,1-.8-2.37v-0.08Zm1.09,0.13a2.71,2.71,0,0,0,.49,1.69,1.66,1.66,0,0,0,2.62,0,3,3,0,0,0,.49-1.81,2.71,2.71,0,0,0-.5-1.69,1.57,1.57,0,0,0-1.32-.65,1.56,1.56,0,0,0-1.29.64A2.94,2.94,0,0,0,361.48,595.38Z"/>
      <path class="cls-3" d="M372.88,595.38a3.8,3.8,0,0,1-.66,2.33,2.12,2.12,0,0,1-1.79.88,2.33,2.33,0,0,1-1.82-.73v3.05h-1.08v-8.78h1l0.05,0.7a2.23,2.23,0,0,1,1.84-.82,2.16,2.16,0,0,1,1.81.86,3.84,3.84,0,0,1,.67,2.4v0.1Zm-1.08-.12a2.8,2.8,0,0,0-.46-1.69,1.47,1.47,0,0,0-1.25-.62,1.59,1.59,0,0,0-1.48.87v3a1.6,1.6,0,0,0,1.49.87,1.47,1.47,0,0,0,1.24-.62A3.06,3.06,0,0,0,371.79,595.26Z"/>
      <path class="cls-3" d="M378.17,597.86a2.3,2.3,0,0,1-1.86.74,2,2,0,0,1-1.54-.59,2.55,2.55,0,0,1-.54-1.74v-4.12h1.08v4.1q0,1.44,1.17,1.44a1.62,1.62,0,0,0,1.65-.93v-4.61h1.08v6.34h-1Z"/>
      <path class="cls-3" d="M383.5,598.6a2.77,2.77,0,0,1-2.1-.85,3.14,3.14,0,0,1-.81-2.26v-0.2a3.8,3.8,0,0,1,.36-1.68,2.81,2.81,0,0,1,1-1.16,2.53,2.53,0,0,1,1.4-.42,2.37,2.37,0,0,1,1.92.81,3.53,3.53,0,0,1,.69,2.33v0.45h-4.29a2.25,2.25,0,0,0,.55,1.51,1.72,1.72,0,0,0,1.33.58,1.89,1.89,0,0,0,1-.23,2.44,2.44,0,0,0,.7-0.62l0.66,0.52A2.66,2.66,0,0,1,383.5,598.6Zm-0.13-5.68a1.45,1.45,0,0,0-1.1.48,2.32,2.32,0,0,0-.55,1.34h3.18v-0.08a2.06,2.06,0,0,0-.45-1.28A1.36,1.36,0,0,0,383.37,592.92Z"/>
      <path class="cls-3" d="M390.29,593.12a3.25,3.25,0,0,0-.53,0,1.43,1.43,0,0,0-1.45.91v4.5h-1.08v-6.34h1.05l0,0.73a1.69,1.69,0,0,1,1.51-.85,1.11,1.11,0,0,1,.48.08v1Z"/>
      <path class="cls-3" d="M393.05,590.61v1.54h1.18V593h-1.18v3.94a0.88,0.88,0,0,0,.16.57,0.67,0.67,0,0,0,.54.19,2.62,2.62,0,0,0,.52-0.07v0.87a3.18,3.18,0,0,1-.83.12,1.35,1.35,0,0,1-1.1-.44,1.89,1.89,0,0,1-.37-1.25V593h-1.15v-0.84H392v-1.54h1.08Z"/>
      <path class="cls-3" d="M395.1,595.26a3.74,3.74,0,0,1,.37-1.68,2.73,2.73,0,0,1,1-1.15A2.78,2.78,0,0,1,398,592a2.67,2.67,0,0,1,2.09.9,3.45,3.45,0,0,1,.8,2.38v0.08a3.78,3.78,0,0,1-.35,1.66,2.69,2.69,0,0,1-1,1.15,2.81,2.81,0,0,1-1.51.41,2.67,2.67,0,0,1-2.09-.9,3.43,3.43,0,0,1-.8-2.37v-0.08Zm1.09,0.13a2.71,2.71,0,0,0,.49,1.69,1.66,1.66,0,0,0,2.62,0,3,3,0,0,0,.49-1.81,2.71,2.71,0,0,0-.5-1.69,1.57,1.57,0,0,0-1.32-.65,1.56,1.56,0,0,0-1.29.64A2.94,2.94,0,0,0,396.19,595.38Z"/>
      <path class="cls-3" d="M404.94,595.26a3.71,3.71,0,0,1,.69-2.35,2.35,2.35,0,0,1,3.57-.13v-3.3h1.08v9h-1l-0.05-.68a2.21,2.21,0,0,1-1.81.8,2.17,2.17,0,0,1-1.8-.9,3.76,3.76,0,0,1-.69-2.36v-0.08Zm1.08,0.12a2.81,2.81,0,0,0,.45,1.69,1.44,1.44,0,0,0,1.23.61,1.58,1.58,0,0,0,1.51-.93v-2.91a1.59,1.59,0,0,0-1.49-.9,1.45,1.45,0,0,0-1.24.62A3.1,3.1,0,0,0,406,595.38Z"/>
      <path class="cls-3" d="M414.6,598.6a2.77,2.77,0,0,1-2.1-.85,3.14,3.14,0,0,1-.81-2.26v-0.2a3.8,3.8,0,0,1,.36-1.68,2.81,2.81,0,0,1,1-1.16,2.53,2.53,0,0,1,1.4-.42,2.37,2.37,0,0,1,1.92.81,3.53,3.53,0,0,1,.69,2.33v0.45h-4.29a2.25,2.25,0,0,0,.55,1.51,1.72,1.72,0,0,0,1.33.58,1.89,1.89,0,0,0,1-.23,2.44,2.44,0,0,0,.7-0.62l0.66,0.52A2.66,2.66,0,0,1,414.6,598.6Zm-0.13-5.68a1.45,1.45,0,0,0-1.1.48,2.32,2.32,0,0,0-.55,1.34H416v-0.08a2.06,2.06,0,0,0-.45-1.28A1.36,1.36,0,0,0,414.46,592.92Z"/>
      <path class="cls-3" d="M338.47,608.72h-3.58v3.77h-1.12V604H339v0.92h-4.16v2.92h3.58v0.92Z"/>
      <path class="cls-3" d="M339.81,609.26a3.74,3.74,0,0,1,.37-1.68,2.73,2.73,0,0,1,1-1.15,2.78,2.78,0,0,1,1.49-.4,2.67,2.67,0,0,1,2.09.9,3.45,3.45,0,0,1,.8,2.38v0.08a3.78,3.78,0,0,1-.35,1.66,2.69,2.69,0,0,1-1,1.15,2.81,2.81,0,0,1-1.51.41,2.67,2.67,0,0,1-2.09-.9,3.43,3.43,0,0,1-.8-2.37v-0.08Zm1.09,0.13a2.71,2.71,0,0,0,.49,1.69,1.66,1.66,0,0,0,2.62,0,3,3,0,0,0,.49-1.81,2.71,2.71,0,0,0-.5-1.69,1.57,1.57,0,0,0-1.32-.65,1.56,1.56,0,0,0-1.29.64A2.94,2.94,0,0,0,340.9,609.38Z"/>
      <path class="cls-3" d="M350,607.12a3.25,3.25,0,0,0-.53,0A1.43,1.43,0,0,0,348,608v4.5h-1.08v-6.34H348l0,0.73a1.69,1.69,0,0,1,1.51-.85,1.11,1.11,0,0,1,.48.08v1Z"/>
      <path class="cls-3" d="M350.6,609.26a3.74,3.74,0,0,1,.37-1.68,2.73,2.73,0,0,1,1-1.15,2.78,2.78,0,0,1,1.49-.4,2.67,2.67,0,0,1,2.09.9,3.45,3.45,0,0,1,.8,2.38v0.08A3.78,3.78,0,0,1,356,611a2.69,2.69,0,0,1-1,1.15,2.81,2.81,0,0,1-1.51.41,2.67,2.67,0,0,1-2.09-.9,3.43,3.43,0,0,1-.8-2.37v-0.08Zm1.09,0.13a2.71,2.71,0,0,0,.49,1.69,1.66,1.66,0,0,0,2.62,0,3,3,0,0,0,.49-1.81,2.71,2.71,0,0,0-.5-1.69,1.57,1.57,0,0,0-1.32-.65,1.56,1.56,0,0,0-1.29.64A2.94,2.94,0,0,0,351.69,609.38Z"/>
      <path class="cls-3" d="M358.76,606.14l0,0.8a2.31,2.31,0,0,1,1.9-.91q2,0,2,2.27v4.19h-1.08v-4.2a1.46,1.46,0,0,0-.31-1,1.26,1.26,0,0,0-1-.33,1.56,1.56,0,0,0-.93.28,1.91,1.91,0,0,0-.62.74v4.52h-1.08v-6.34h1Z"/>
      <path class="cls-3" d="M364.09,609.26a3.71,3.71,0,0,1,.69-2.35,2.35,2.35,0,0,1,3.57-.13v-3.3h1.08v9h-1l-0.05-.68a2.21,2.21,0,0,1-1.81.8,2.17,2.17,0,0,1-1.8-.9,3.76,3.76,0,0,1-.69-2.36v-0.08Zm1.08,0.12a2.81,2.81,0,0,0,.45,1.69,1.44,1.44,0,0,0,1.23.61,1.58,1.58,0,0,0,1.51-.93v-2.91a1.59,1.59,0,0,0-1.49-.9,1.45,1.45,0,0,0-1.24.62A3.1,3.1,0,0,0,365.17,609.38Z"/>
      <path class="cls-3" d="M375,612.48a2.28,2.28,0,0,1-.15-0.67,2.42,2.42,0,0,1-1.8.79,2.24,2.24,0,0,1-1.54-.53,1.72,1.72,0,0,1-.6-1.34,1.79,1.79,0,0,1,.75-1.54,3.55,3.55,0,0,1,2.12-.55h1.05v-0.5a1.22,1.22,0,0,0-.34-0.91,1.37,1.37,0,0,0-1-.34,1.58,1.58,0,0,0-1,.29,0.86,0.86,0,0,0-.39.71h-1.09a1.5,1.5,0,0,1,.34-0.92,2.3,2.3,0,0,1,.91-0.7,3.08,3.08,0,0,1,1.27-.26,2.51,2.51,0,0,1,1.72.55,2,2,0,0,1,.64,1.51V611a3.57,3.57,0,0,0,.22,1.39v0.09H375Zm-1.8-.83a1.91,1.91,0,0,0,1-.26,1.59,1.59,0,0,0,.66-0.69v-1.3H374q-2,0-2,1.17a1,1,0,0,0,.34.8A1.31,1.31,0,0,0,373.24,611.66Z"/>
      <path class="cls-3" d="M380.58,609a9.06,9.06,0,0,1,.35-2.54,7.39,7.39,0,0,1,1.06-2.21,4.5,4.5,0,0,1,1.46-1.41l0.22,0.71a4.67,4.67,0,0,0-1.4,2,8.69,8.69,0,0,0-.6,3v0.5a8.73,8.73,0,0,0,.83,3.93,4.69,4.69,0,0,0,1.18,1.56l-0.22.66a4.64,4.64,0,0,1-1.49-1.45A8.14,8.14,0,0,1,380.58,609Z"/>
      <path class="cls-3" d="M389.6,610.25H386l-0.8,2.23h-1.16l3.26-8.53h1l3.26,8.53h-1.15Zm-3.23-.92h2.9l-1.45-4Zm2-7.65h1.31l-1.57,1.72h-0.87Z"/>
      <path class="cls-3" d="M393.73,612.48h-1.08v-9h1.08v9Z"/>
      <path class="cls-3" d="M399.38,612.48a2.28,2.28,0,0,1-.15-0.67,2.42,2.42,0,0,1-1.8.79,2.24,2.24,0,0,1-1.54-.53,1.72,1.72,0,0,1-.6-1.34,1.79,1.79,0,0,1,.75-1.54,3.55,3.55,0,0,1,2.12-.55h1.05v-0.5a1.22,1.22,0,0,0-.34-0.91,1.37,1.37,0,0,0-1-.34,1.58,1.58,0,0,0-1,.29,0.86,0.86,0,0,0-.39.71h-1.09a1.5,1.5,0,0,1,.34-0.92,2.3,2.3,0,0,1,.91-0.7,3.08,3.08,0,0,1,1.27-.26,2.51,2.51,0,0,1,1.72.55,2,2,0,0,1,.64,1.51V611a3.57,3.57,0,0,0,.22,1.39v0.09h-1.14Zm-1.8-.83a1.91,1.91,0,0,0,1-.26,1.59,1.59,0,0,0,.66-0.69v-1.3h-0.85q-2,0-2,1.17a1,1,0,0,0,.34.8A1.31,1.31,0,0,0,397.58,611.66Z"/>
      <path class="cls-3" d="M404,611l1.57-4.87h1.11l-2.27,6.34h-0.83l-2.3-6.34h1.11Z"/>
      <path class="cls-3" d="M411.54,612.48a2.28,2.28,0,0,1-.15-0.67,2.42,2.42,0,0,1-1.8.79,2.24,2.24,0,0,1-1.54-.53,1.72,1.72,0,0,1-.6-1.34,1.79,1.79,0,0,1,.75-1.54,3.55,3.55,0,0,1,2.12-.55h1.05v-0.5a1.22,1.22,0,0,0-.34-0.91,1.37,1.37,0,0,0-1-.34,1.58,1.58,0,0,0-1,.29,0.86,0.86,0,0,0-.39.71h-1.09a1.5,1.5,0,0,1,.34-0.92,2.3,2.3,0,0,1,.91-0.7,3.08,3.08,0,0,1,1.27-.26,2.51,2.51,0,0,1,1.72.55,2,2,0,0,1,.64,1.51V611a3.57,3.57,0,0,0,.22,1.39v0.09h-1.14Zm-1.8-.83a1.91,1.91,0,0,0,1-.26,1.59,1.59,0,0,0,.66-0.69v-1.3h-0.85q-2,0-2,1.17a1,1,0,0,0,.34.8A1.31,1.31,0,0,0,409.74,611.66Z"/>
      <path class="cls-3" d="M416.65,609.08a9.06,9.06,0,0,1-.34,2.5,7.41,7.41,0,0,1-1,2.21,4.6,4.6,0,0,1-1.48,1.44l-0.23-.66a4.71,4.71,0,0,0,1.45-2.15,9.29,9.29,0,0,0,.56-3.23V609a9.65,9.65,0,0,0-.26-2.29,7.72,7.72,0,0,0-.72-1.9,4.38,4.38,0,0,0-1-1.31l0.23-.66a4.58,4.58,0,0,1,1.47,1.43,7.42,7.42,0,0,1,1,2.21A9.27,9.27,0,0,1,416.65,609.08Z"/>
    </g>
    <g>
      <path class="cls-4" d="M204.24,301.49v-10h3.49a4.58,4.58,0,0,1,2.75.69,2.38,2.38,0,0,1,.94,2,2.25,2.25,0,0,1-.37,1.29,2.18,2.18,0,0,1-1,.82,2.1,2.1,0,0,1,1.21.77,2.28,2.28,0,0,1,.44,1.42,2.63,2.63,0,0,1-.92,2.17,4.13,4.13,0,0,1-2.61.75h-3.87Zm2.05-5.78h1.52q1.55,0,1.55-1.24a1.14,1.14,0,0,0-.39-1,2.07,2.07,0,0,0-1.24-.3h-1.44v2.51Zm0,1.45v2.69h1.76a1.7,1.7,0,0,0,1.13-.35,1.19,1.19,0,0,0,.41-1,1.25,1.25,0,0,0-1.42-1.39h-1.88Z"/>
      <path class="cls-4" d="M213,292.18a1,1,0,0,1,.3-0.73,1.28,1.28,0,0,1,1.62,0,1,1,0,0,1,0,1.47,1.27,1.27,0,0,1-1.61,0A1,1,0,0,1,213,292.18Zm2.1,9.31h-2v-7.4h2v7.4Z"/>
      <path class="cls-4" d="M218.85,301.49h-2V291h2v10.5Z"/>
      <path class="cls-4" d="M227.14,297.86a4.48,4.48,0,0,1-.76,2.77,2.51,2.51,0,0,1-2.12,1,2.31,2.31,0,0,1-1.92-.92l-0.09.79h-1.78V291h2v3.77a2.25,2.25,0,0,1,1.8-.8,2.53,2.53,0,0,1,2.12,1,4.48,4.48,0,0,1,.77,2.8v0.11Zm-2-.15a3,3,0,0,0-.36-1.64,1.2,1.2,0,0,0-1.06-.52,1.3,1.3,0,0,0-1.3.77v2.93a1.32,1.32,0,0,0,1.31.78,1.22,1.22,0,0,0,1.26-.95A4.89,4.89,0,0,0,225.16,297.71Z"/>
      <path class="cls-4" d="M232.64,301.49a2.18,2.18,0,0,1-.2-0.66,2.39,2.39,0,0,1-1.87.8,2.62,2.62,0,0,1-1.8-.63,2,2,0,0,1-.71-1.59,2.09,2.09,0,0,1,.87-1.8,4.3,4.3,0,0,1,2.52-.64h0.91v-0.42a1.23,1.23,0,0,0-.26-0.82,1,1,0,0,0-.83-0.31,1.17,1.17,0,0,0-.78.24,0.81,0.81,0,0,0-.29.66h-2a2,2,0,0,1,.4-1.19,2.61,2.61,0,0,1,1.12-.86,4.08,4.08,0,0,1,1.63-.31,3.23,3.23,0,0,1,2.17.69,2.4,2.4,0,0,1,.8,1.93v3.21a3.55,3.55,0,0,0,.29,1.59v0.12h-2ZM231,300.12a1.7,1.7,0,0,0,.81-0.19,1.27,1.27,0,0,0,.55-0.52v-1.27h-0.74q-1.48,0-1.58,1v0.12a0.8,0.8,0,0,0,.26.61A1,1,0,0,0,231,300.12Z"/>
      <path class="cls-4" d="M235.55,297.73a4.38,4.38,0,0,1,.42-2,3.09,3.09,0,0,1,1.22-1.33A3.55,3.55,0,0,1,239,294a3.37,3.37,0,0,1,2.45.92,3.67,3.67,0,0,1,1.05,2.49v0.51a3.87,3.87,0,0,1-.95,2.73,3.68,3.68,0,0,1-5.1,0,3.94,3.94,0,0,1-1-2.79v-0.09Zm2,0.14a2.77,2.77,0,0,0,.4,1.61,1.42,1.42,0,0,0,2.26,0,3,3,0,0,0,.4-1.76,2.73,2.73,0,0,0-.4-1.6,1.31,1.31,0,0,0-1.13-.57,1.29,1.29,0,0,0-1.12.56A3.08,3.08,0,0,0,237.53,297.87Z"/>
    </g>
    <g>
      <path class="cls-5" d="M165.16,507.31a7.73,7.73,0,0,1-.67,3.31,5,5,0,0,1-1.91,2.2,5.65,5.65,0,0,1-5.69,0,5.08,5.08,0,0,1-1.93-2.18,7.5,7.5,0,0,1-.69-3.27v-0.63a7.67,7.67,0,0,1,.68-3.33,5.06,5.06,0,0,1,1.92-2.21,5.64,5.64,0,0,1,5.69,0,5.08,5.08,0,0,1,1.92,2.21,7.66,7.66,0,0,1,.68,3.32v0.57Zm-2.67-.58a5.39,5.39,0,0,0-.72-3.06,2.55,2.55,0,0,0-4.1,0,5.32,5.32,0,0,0-.73,3v0.62a5.45,5.45,0,0,0,.72,3,2.52,2.52,0,0,0,4.11,0,5.42,5.42,0,0,0,.72-3v-0.62Z"/>
      <path class="cls-5" d="M172.26,506.29a6.9,6.9,0,0,0-.91-0.07,1.86,1.86,0,0,0-1.89,1v6.22h-2.54v-9.51h2.4l0.07,1.13a2.35,2.35,0,0,1,2.12-1.31,2.66,2.66,0,0,1,.79.11Z"/>
      <path class="cls-5" d="M172.92,508.6a5.72,5.72,0,0,1,1-3.54,3.23,3.23,0,0,1,2.73-1.32,2.91,2.91,0,0,1,2.29,1v-4.85h2.55v13.5h-2.29l-0.12-1a3,3,0,0,1-2.44,1.19,3.23,3.23,0,0,1-2.69-1.32A5.91,5.91,0,0,1,172.92,508.6Zm2.54,0.18a3.77,3.77,0,0,0,.47,2.06,1.52,1.52,0,0,0,1.35.72,1.7,1.7,0,0,0,1.66-1v-3.77a1.67,1.67,0,0,0-1.64-1Q175.46,505.78,175.46,508.78Z"/>
      <path class="cls-5" d="M189.15,512.46a3.19,3.19,0,0,1-2.6,1.14,3,3,0,0,1-2.33-.88,3.75,3.75,0,0,1-.82-2.58v-6.23h2.54v6.15a1.26,1.26,0,0,0,1.35,1.49,1.83,1.83,0,0,0,1.78-.9v-6.74h2.55v9.51h-2.39Z"/>
      <path class="cls-5" d="M195.86,503.91l0.08,1.1a3.32,3.32,0,0,1,2.73-1.27,2.76,2.76,0,0,1,2.25.89,4.14,4.14,0,0,1,.76,2.65v6.14h-2.54v-6.1a1.65,1.65,0,0,0-.35-1.18,1.57,1.57,0,0,0-1.17-.37,1.75,1.75,0,0,0-1.61.92v6.72h-2.54v-9.51h2.39Zm5-3.88a2.46,2.46,0,0,1-.58,1.67,1.8,1.8,0,0,1-1.42.67,2.15,2.15,0,0,1-.59-0.07,4,4,0,0,1-.72-0.32,3.86,3.86,0,0,0-.66-0.3,1.61,1.61,0,0,0-.44-0.06,0.71,0.71,0,0,0-.52.22,0.85,0.85,0,0,0-.21.62l-1.48-.09a2.49,2.49,0,0,1,.58-1.66,1.77,1.77,0,0,1,1.41-.69,1.81,1.81,0,0,1,.5.07,5.47,5.47,0,0,1,.76.32,4.94,4.94,0,0,0,.73.31,1.66,1.66,0,0,0,.42.05,0.74,0.74,0,0,0,.53-0.22,0.82,0.82,0,0,0,.22-0.62Z"/>
      <path class="cls-5" d="M209.12,513.42a2.82,2.82,0,0,1-.25-0.85,3.07,3.07,0,0,1-2.4,1,3.38,3.38,0,0,1-2.32-.81,2.6,2.6,0,0,1-.92-2,2.69,2.69,0,0,1,1.12-2.32,5.53,5.53,0,0,1,3.24-.82h1.17v-0.54a1.57,1.57,0,0,0-.34-1.05,1.33,1.33,0,0,0-1.07-.4,1.51,1.51,0,0,0-1,.31,1,1,0,0,0-.36.84h-2.54a2.55,2.55,0,0,1,.51-1.53,3.37,3.37,0,0,1,1.44-1.1,5.25,5.25,0,0,1,2.09-.4,4.15,4.15,0,0,1,2.79.88,3.09,3.09,0,0,1,1,2.48v4.12a4.55,4.55,0,0,0,.38,2v0.15h-2.57Zm-2.1-1.77a2.19,2.19,0,0,0,1-.25,1.65,1.65,0,0,0,.7-0.67V509.1h-0.95q-1.91,0-2,1.32v0.15a1,1,0,0,0,.33.78A1.3,1.3,0,0,0,207,511.66Z"/>
    </g>
    <g>
      <path class="cls-4" d="M475.3,597.09l2.26-7.49h2.28l-3.47,10h-2.14l-3.45-10h2.28Z"/>
      <path class="cls-4" d="M480.63,590.25a1,1,0,0,1,.3-0.73,1.28,1.28,0,0,1,1.62,0,1,1,0,0,1,0,1.47,1.27,1.27,0,0,1-1.61,0A1,1,0,0,1,480.63,590.25Zm2.1,9.31h-2v-7.4h2v7.4Z"/>
      <path class="cls-4" d="M486.72,590.34v1.82H488v1.45h-1.26v3.69a0.88,0.88,0,0,0,.16.59,0.79,0.79,0,0,0,.6.18,3.17,3.17,0,0,0,.58,0v1.5a4.06,4.06,0,0,1-1.2.18,1.89,1.89,0,0,1-2.12-2.1v-4h-1.08v-1.45h1.08v-1.82h2Z"/>
      <path class="cls-4" d="M488.57,595.79a4.39,4.39,0,0,1,.42-2,3.1,3.1,0,0,1,1.22-1.33,3.56,3.56,0,0,1,1.85-.47,3.37,3.37,0,0,1,2.44.92,3.68,3.68,0,0,1,1.06,2.49v0.51a3.86,3.86,0,0,1-1,2.73,3.68,3.68,0,0,1-5.1,0,3.94,3.94,0,0,1-1-2.79v-0.09Zm2,0.14a2.76,2.76,0,0,0,.4,1.61,1.42,1.42,0,0,0,2.26,0,3,3,0,0,0,.4-1.76,2.74,2.74,0,0,0-.4-1.6,1.31,1.31,0,0,0-1.13-.57,1.29,1.29,0,0,0-1.12.56A3.07,3.07,0,0,0,490.55,595.93Z"/>
      <path class="cls-4" d="M501,594a5.34,5.34,0,0,0-.71-0.05,1.45,1.45,0,0,0-1.47.76v4.84h-2v-7.4h1.87l0.05,0.88a1.83,1.83,0,0,1,1.65-1,2.08,2.08,0,0,1,.62.09Z"/>
      <path class="cls-4" d="M501.89,590.25a1,1,0,0,1,.3-0.73,1.28,1.28,0,0,1,1.62,0,1,1,0,0,1,0,1.47,1.27,1.27,0,0,1-1.61,0A1,1,0,0,1,501.89,590.25Zm2.1,9.31h-2v-7.4h2v7.4Z"/>
      <path class="cls-4" d="M509.9,599.56a2.2,2.2,0,0,1-.2-0.66,2.39,2.39,0,0,1-1.87.8,2.62,2.62,0,0,1-1.8-.63,2,2,0,0,1-.71-1.59,2.09,2.09,0,0,1,.87-1.8,4.3,4.3,0,0,1,2.52-.64h0.91v-0.42a1.22,1.22,0,0,0-.26-0.82,1,1,0,0,0-.83-0.31,1.17,1.17,0,0,0-.78.24,0.81,0.81,0,0,0-.28.66h-2a2,2,0,0,1,.4-1.19,2.62,2.62,0,0,1,1.12-.86,4.08,4.08,0,0,1,1.63-.31,3.23,3.23,0,0,1,2.17.69,2.4,2.4,0,0,1,.8,1.93v3.21a3.54,3.54,0,0,0,.29,1.59v0.12h-2Zm-1.63-1.37a1.7,1.7,0,0,0,.81-0.19,1.28,1.28,0,0,0,.55-0.52V596.2h-0.74q-1.48,0-1.58,1v0.12a0.79,0.79,0,0,0,.26.61A1,1,0,0,0,508.27,598.19Z"/>
    </g>
    <polyline class="cls-6" points="243 513.79 297.38 528.54 391.43 528.47 436.31 578.8"/>
    <path class="cls-4" d="M450.84,585.12l-2.13,3.07-4.09.67L441,587.79l-3-.8-2.36-1-3,1.91-2.4.18-0.84,1.33-2.09,2.31a11.29,11.29,0,0,0-.4,2.4,17,17,0,0,1,1.29,2.53l3.78,1s5.78,1.39,5.82,1.72,0.62,4.73.62,4.73l-2.4.39,0.71,4.14,6.35,0.44s10.09,3.56,10.22,3.69a9,9,0,0,0,1.6,1.16l9.51-3.56-0.84-5.6s3.33-6.49,3.33-6.62-1.91-2-1.91-2l-3-1.16,2.89-3.78-4.31-3.29-2.27,8.62-3.24.09-0.62-5.24s3.11-4.89,3-5-1-2.4-1-2.4l-2.8,1.73Z"/>
    <path class="cls-4" d="M239.19,278l6.44,1.5,8.25,6.12,5.5-2,12.75-2.37,8.63-1.22,2.88,5s7.44,1.87,7.63,1.75,1-4.19,1.31-4.16,9,4.41,9.19,4.59-2.87,7.19-2.87,7.19l-4.25,2.48s-3-1-3.31-1.1-12.75-.48-12.75-0.48l-2.12,4.31s6.31,5,6.06,4.91-13.5,2-13.5,2-5-5.28-5.19-5.54-4.31-2.58-4.31-2.58l-6.81-2.62-8.62-6.84-4.87.71-3-8.37L233.75,276l0.81-.44Z"/>
    <circle class="cls-3" cx="430.26" cy="592.38" r="6.42"/>
    <circle class="cls-5" cx="230.79" cy="509.39" r="11.84"/>
    <polyline class="cls-6" points="270.73 311.82 270.73 380.43 230.79 437.96 230.79 495.32"/>
    <g>
      <line class="cls-7" x1="349.23" y1="176.61" x2="382.54" y2="124.7"/>
      <line class="cls-7" x1="296.77" y1="258.38" x2="320.16" y2="221.92"/>
      <path class="cls-3" d="M318.74,181.72L327,201.86l-4.34,6.62c-1.19,1.81-2.81,8.53-.87,9.81s7.46-2.9,8.65-4.71l4.34-6.62,21.77-.46a1.42,1.42,0,0,0,1.18-.63l0.16-.25a1.4,1.4,0,0,0,.13-1.28,1.62,1.62,0,0,0-1-1l-16.24-5.64,1.52-2.33,5.11-7.8,6.65-.1a1.43,1.43,0,0,0,1.24-.63l0.11-.17a1.42,1.42,0,0,0,.12-1.3,1.62,1.62,0,0,0-1-.94l-9-2.49-5.89-7.2a1.62,1.62,0,0,0-1.26-.54,1.41,1.41,0,0,0-1.15.63l-0.11.17a1.44,1.44,0,0,0-.08,1.39l2.58,6.12-5.11,7.8L333,192.66,321.39,180a1.63,1.63,0,0,0-1.26-.5,1.4,1.4,0,0,0-1.12.63l-0.16.25A1.41,1.41,0,0,0,318.74,181.72Z"/>
    </g>
    <g>
      <line class="cls-7" x1="523.43" y1="531.09" x2="575.1" y2="497.41"/>
      <line class="cls-7" x1="442.04" y1="584.14" x2="478.33" y2="560.49"/>
      <path class="cls-3" d="M493.53,523.25L492.8,545l-6.67,4.26c-1.83,1.17-6.07,6.63-4.82,8.59s8,0.42,9.82-.75l6.67-4.26,20,8.51a1.42,1.42,0,0,0,1.34-.09l0.25-.16a1.4,1.4,0,0,0,.64-1.12,1.62,1.62,0,0,0-.49-1.26l-12.5-11.8,2.34-1.5,7.86-5L523.4,543a1.43,1.43,0,0,0,1.39-.07l0.17-.11a1.41,1.41,0,0,0,.64-1.14,1.62,1.62,0,0,0-.53-1.27l-7.17-6-2.42-9a1.62,1.62,0,0,0-.93-1,1.41,1.41,0,0,0-1.3.1l-0.17.11a1.44,1.44,0,0,0-.64,1.23l-0.16,6.63-7.86,5-2.34,1.5-5.44-16.31a1.63,1.63,0,0,0-.94-1,1.4,1.4,0,0,0-1.28.11l-0.25.16A1.41,1.41,0,0,0,493.53,523.25Z"/>
    </g>
    <g>
      <rect class="cls-8" x="227.03" y="398.47" width="46" height="19.22" rx="5" ry="5"/>
      <g>
        <path class="cls-9" d="M234.61,407.68h0.9a1.27,1.27,0,0,0,1-.32,1.18,1.18,0,0,0,.31-0.86,1,1,0,0,0-.31-0.8,1.19,1.19,0,0,0-.85-0.29,1.25,1.25,0,0,0-.81.27,0.85,0.85,0,0,0-.33.69h-1.69a2.08,2.08,0,0,1,.36-1.2,2.4,2.4,0,0,1,1-.83,3.37,3.37,0,0,1,1.43-.3,3.19,3.19,0,0,1,2.12.65,2.21,2.21,0,0,1,.77,1.78,1.8,1.8,0,0,1-.36,1.08,2.32,2.32,0,0,1-.94.76,2,2,0,0,1,1.43,2,2.25,2.25,0,0,1-.83,1.82,3.33,3.33,0,0,1-2.19.69,3.16,3.16,0,0,1-2.09-.67,2.2,2.2,0,0,1-.81-1.78h1.69a1,1,0,0,0,.36.79,1.5,1.5,0,0,0,1.83,0,1.1,1.1,0,0,0,.34-0.85,1.19,1.19,0,0,0-1.41-1.28h-0.9v-1.32Z"/>
        <path class="cls-9" d="M245.57,405.11l-3.3,7.59h-1.79l3.3-7.17h-4.24v-1.37h6v0.95Z"/>
        <path class="cls-9" d="M252.5,409.28l-0.91,1v2.44h-1.76v-8.53h1.76V408l0.77-1.06,2.17-2.81h2.16l-3,3.79,3.12,4.74h-2.09Z"/>
        <path class="cls-9" d="M258.92,406.36l0.05,0.71a2.23,2.23,0,0,1,1.82-.83,1.69,1.69,0,0,1,1.68,1,2.18,2.18,0,0,1,1.9-1,1.89,1.89,0,0,1,1.54.6,2.76,2.76,0,0,1,.5,1.81v4h-1.7v-4.05a1.21,1.21,0,0,0-.21-0.79,0.93,0.93,0,0,0-.74-0.25,1.06,1.06,0,0,0-1.05.73v4.36H261v-4a1.2,1.2,0,0,0-.22-0.8,0.94,0.94,0,0,0-.74-0.25,1.1,1.1,0,0,0-1,.6v4.49h-1.69v-6.34h1.59Z"/>
      </g>
    </g>
    <g>
      <rect class="cls-8" x="316.65" y="518.69" width="46" height="19.22" rx="5" ry="5"/>
      <g>
        <path class="cls-9" d="M324.23,527.9h0.9a1.27,1.27,0,0,0,1-.32,1.18,1.18,0,0,0,.31-0.86,1,1,0,0,0-.31-0.8,1.19,1.19,0,0,0-.85-0.29,1.25,1.25,0,0,0-.81.27,0.85,0.85,0,0,0-.33.69h-1.69a2.08,2.08,0,0,1,.36-1.2,2.4,2.4,0,0,1,1-.83,3.36,3.36,0,0,1,1.43-.3,3.19,3.19,0,0,1,2.12.65,2.21,2.21,0,0,1,.77,1.78,1.8,1.8,0,0,1-.36,1.08,2.32,2.32,0,0,1-.94.76,2.12,2.12,0,0,1,1.08.77,2.1,2.1,0,0,1,.35,1.22,2.24,2.24,0,0,1-.83,1.82,3.34,3.34,0,0,1-2.2.69,3.16,3.16,0,0,1-2.09-.67,2.2,2.2,0,0,1-.81-1.78H324a1,1,0,0,0,.36.79,1.5,1.5,0,0,0,1.83,0,1.1,1.1,0,0,0,.34-0.85,1.19,1.19,0,0,0-1.41-1.28h-0.9V527.9Z"/>
        <path class="cls-9" d="M335,526.66a2,2,0,0,1-.31,1.1,2.24,2.24,0,0,1-.86.77,2.47,2.47,0,0,1,1,.82,2.11,2.11,0,0,1,.36,1.23,2.24,2.24,0,0,1-.77,1.8,3.69,3.69,0,0,1-4.21,0,2.23,2.23,0,0,1-.78-1.79,2.13,2.13,0,0,1,.36-1.24,2.43,2.43,0,0,1,1-.82,2.21,2.21,0,0,1-.85-0.77,2,2,0,0,1-.31-1.1,2.21,2.21,0,0,1,.73-1.74,3.34,3.34,0,0,1,3.95,0A2.2,2.2,0,0,1,335,526.66Zm-1.52,3.8a1.23,1.23,0,0,0-.32-0.89,1.29,1.29,0,0,0-1.73,0,1.39,1.39,0,0,0,0,1.77,1.32,1.32,0,0,0,1.74,0A1.22,1.22,0,0,0,333.44,530.46Zm-0.18-3.72a1.17,1.17,0,0,0-.26-0.8,1.07,1.07,0,0,0-1.48,0,1.17,1.17,0,0,0-.26.81,1.22,1.22,0,0,0,.26.82,1,1,0,0,0,1.49,0A1.23,1.23,0,0,0,333.26,526.74Z"/>
        <path class="cls-9" d="M342.12,529.5l-0.91,1v2.44h-1.76v-8.53h1.76v3.87l0.77-1.06,2.17-2.81h2.16l-3,3.79,3.12,4.74h-2.09Z"/>
        <path class="cls-9" d="M348.54,526.58l0.05,0.71a2.23,2.23,0,0,1,1.82-.83,1.69,1.69,0,0,1,1.68,1,2.18,2.18,0,0,1,1.9-1,1.89,1.89,0,0,1,1.54.6,2.76,2.76,0,0,1,.5,1.81v4h-1.7v-4.05a1.21,1.21,0,0,0-.21-0.79,0.93,0.93,0,0,0-.74-0.25,1.06,1.06,0,0,0-1.05.73v4.36h-1.69v-4a1.2,1.2,0,0,0-.22-0.8,0.94,0.94,0,0,0-.74-0.25,1.1,1.1,0,0,0-1,.6v4.49H347v-6.34h1.59Z"/>
      </g>
    </g>
    <circle class="cls-10" cx="666.85" cy="178.64" r="138"/>
    <g>
      <path class="cls-11" d="M730.51,0.34l-12,12.6-22.67-8,2.45,21.33H665.84l-6.67,12.67,35.67,27.33,8.67,43-7.7,26.08-6.16,1.54-6.3-2.76-10.69-.07-26.5-1.46-37.33-4.67s-18.67,11.67-17.67,12.33,9,38.36,9,38.36l-13,43,9.67,6.67s-2.67,23.67-1,23.33,28.67,0,28.67,0,16.67,16.33,17.67,16.33,16.67-9,16.67-9l32-2.33,5.89-23,24.11-13-4.33-14,19-26.33,31-19.33V139.28l16-10.33,26.67,11.67,39.33-25.67Z"/>
      <polygon class="cls-11" points="590.84 334.95 600.51 319.28 625.51 303.28 636.84 276.02 644.84 272.95 657.84 287.95 691.17 287.62 729.17 266.28 770.51 257.62 802.84 257.62 815.17 252.95 832.17 255.62 864.17 248.62 880.51 286.62 866.17 303.28 590.84 334.95"/>
      <polygon class="cls-12" points="764.84 200.95 756.17 207.62 764.84 210.95 771.51 204.28 764.84 200.95"/>
      <polygon class="cls-12" points="777.17 197.95 781.17 197.95 781.17 202.28 777.17 197.95"/>
      <polygon class="cls-12" points="738.51 219.62 741.84 214.62 743.84 217.12 738.51 219.62"/>
      <polygon class="cls-12" points="854.84 143.62 844.51 155.28 852.84 172.62 857.84 152.62 854.84 143.62"/>
      <polygon class="cls-12" points="839.17 184.95 853.17 178.64 861.84 190.28 857.84 214.62 841.84 217.12 844.51 194.62 839.17 184.95"/>
      <path class="cls-4" d="M678.56,135.94l-1.55.78-3,1.11,0.29,1.94,2-1,1.67,0.63-0.1,2.57,2.33,1.31-1.89.48-1.55-.44-0.82,1.26,1,0.82,1.55-.92a4.54,4.54,0,0,0-.39,1.6c0.19,0,3.1,1.65,3.1,1.65l1.07,2.47a2.75,2.75,0,0,1,.87-1c0.19,0.1,1,.58,1,0.58v1.36l3.3,0.24L688,149.9a12.62,12.62,0,0,1-1.31-.48,9.2,9.2,0,0,1,1-1l1.75,0,0.92-4.65,1.84-.68,2.18-3.34,0.24-1.3,2.18-1.65-0.92-1.36-6.16,1.54-6.3-2.76-2.16.4-1.09,1.15Z"/>
      <path class="cls-13" d="M730.51,0.34l-12,12.6-22.67-8,2.45,21.33H665.84l-6.67,12.67,35.67,27.33,8.67,43-7.7,26.08-6.16,1.54-6.3-2.76-10.69-.07-26.5-1.46-37.33-4.67s-18.67,11.67-17.67,12.33,9,38.36,9,38.36l-13,43,9.67,6.67s-2.67,23.67-1,23.33,28.67,0,28.67,0,16.67,16.33,17.67,16.33,16.67-9,16.67-9l32-2.33,5.89-23,24.11-13-4.33-14,19-26.33,31-19.33V139.28l16-10.33,26.67,11.67,39.33-25.67,18.33,8.67,13.67,23.67"/>
      <polyline class="cls-13" points="590.84 334.95 600.51 319.28 625.51 303.28 636.84 276.02 644.84 272.95 657.84 287.95 691.17 287.62 729.17 266.28 770.51 257.62 802.84 257.62 815.17 252.95 832.17 255.62 864.17 248.62 880.51 286.62 866.17 303.28"/>
      <polyline class="cls-12" points="695.81 135.36 727.61 140.5 766.51 139.28"/>
      <polyline class="cls-12" points="596.39 161.23 629.82 163.94 624.51 251.62"/>
    </g>
    <g>
      <g>
        <g class="cls-14">
          <g>
            <rect class="cls-15" x="339.35" y="178.07" width="339.36" height="153.45"/>
            <path class="cls-16" d="M705.92,282.22L603.44,229.73s-6.63,29.28-7.19,35.64,0.28,8-5.53,14.09-5,5.53-10.49,8-9.12,1.66-9.12,1.66L511.72,317,486.59,284.7l-14.64,5.53-12.16-2.76H449.3l-5.8-7.18-6.91-4.42s-16.29,12.15-16.29,11-1.66-8.56-1.66-8.56L377.2,290.23,339.35,283V479.45H692.66Z"/>
            <path class="cls-9" d="M472.78,292.44l-8.84,4.42-16.85,6.36,1.66,11,11.19-5.53,9.53,3.6L468.91,327l13.26,7.46-10.77,2.76-8.83-2.48-4.7,7.18,5.53,4.7,8.83-5.25s-3.31,8.84-2.21,9.11,17.68,9.39,17.68,9.39l6.08,14.09s3.87-6.08,5-5.53,5.53,3.32,5.53,3.32v7.74l18.79,1.38,3.32-8.84s-8.29-2.76-7.46-2.76,4.14-5.8,5.52-5.8,9.94-.27,9.94-0.27l5.25-26.52,10.51-3.9,12.43-19.06,1.36-7.43,12.43-9.39-5.25-7.73-27.91,9.67-16-1.93L509,287.74l-8.84-5.52-11.22,2,3.4,6.22-4.48-5.94-1.23.23-5,6.35Z"/>
            <polygon class="cls-16" points="499.02 350.17 493.22 350.17 491.56 355.7 499.02 362.6 506.2 362.6 516.97 365.37 516.97 360.67 511.73 359.29 511.73 351.28 499.02 350.17"/>
          </g>
        </g>
        <circle class="cls-1" cx="508.57" cy="316.65" r="90.95"/>
      </g>
      <circle class="cls-4" cx="492.98" cy="291.4" r="1.56"/>
      <circle class="cls-4" cx="496.09" cy="331.57" r="1.56"/>
      <circle class="cls-4" cx="564.28" cy="292.96" r="1.56"/>
      <g>
        <path class="cls-4" d="M483.79,300v-5.14h1.68a2,2,0,0,1,1.26.35,1.25,1.25,0,0,1,.42,1,1,1,0,0,1-.2.64,1.33,1.33,0,0,1-.56.43,1.19,1.19,0,0,1,.66.44,1.27,1.27,0,0,1,.24.78,1.37,1.37,0,0,1-.45,1.09,1.85,1.85,0,0,1-1.27.4h-1.78Zm0.68-2.95h1a1.07,1.07,0,0,0,.71-0.22,0.75,0.75,0,0,0,.27-0.6,0.73,0.73,0,0,0-.25-0.62,1.21,1.21,0,0,0-.75-0.19h-1v1.64Zm0,0.54v1.85h1.12a1.08,1.08,0,0,0,.75-0.25,0.94,0.94,0,0,0-.74-1.6h-1.13Z"/>
        <path class="cls-4" d="M488.19,295.17a0.39,0.39,0,0,1,.1-0.27,0.36,0.36,0,0,1,.29-0.11,0.37,0.37,0,0,1,.29.11,0.39,0.39,0,0,1,.1.27,0.35,0.35,0,0,1-.39.37,0.37,0.37,0,0,1-.29-0.11A0.38,0.38,0,0,1,488.19,295.17ZM488.9,300h-0.65v-3.82h0.65V300Z"/>
        <path class="cls-4" d="M490.65,300H490v-5.42h0.65V300Z"/>
        <path class="cls-4" d="M494.93,298.14a2.28,2.28,0,0,1-.4,1.41,1.29,1.29,0,0,1-1.08.53,1.33,1.33,0,0,1-1.12-.51l0,0.44h-0.6v-5.42h0.65v2a1.32,1.32,0,0,1,1.09-.49,1.29,1.29,0,0,1,1.09.53,2.34,2.34,0,0,1,.4,1.44v0.06Zm-0.65-.07a1.76,1.76,0,0,0-.26-1,0.85,0.85,0,0,0-.74-0.36,1,1,0,0,0-.93.6v1.65a1,1,0,0,0,.93.6,0.85,0.85,0,0,0,.73-0.36A1.87,1.87,0,0,0,494.28,298.06Z"/>
        <path class="cls-4" d="M498.11,300a1.39,1.39,0,0,1-.09-0.4,1.46,1.46,0,0,1-1.09.47,1.35,1.35,0,0,1-.93-0.32,1,1,0,0,1-.36-0.81,1.08,1.08,0,0,1,.45-0.93,2.14,2.14,0,0,1,1.28-.33H498v-0.3a0.73,0.73,0,0,0-.2-0.55,0.82,0.82,0,0,0-.6-0.2,1,1,0,0,0-.59.18,0.52,0.52,0,0,0-.24.43h-0.66a0.9,0.9,0,0,1,.2-0.55,1.39,1.39,0,0,1,.55-0.42,1.85,1.85,0,0,1,.76-0.16,1.51,1.51,0,0,1,1,.33,1.19,1.19,0,0,1,.39.91v1.76a2.16,2.16,0,0,0,.13.84V300h-0.68Zm-1.08-.5a1.15,1.15,0,0,0,.58-0.16,1,1,0,0,0,.4-0.41v-0.78h-0.51q-1.2,0-1.2.7a0.59,0.59,0,0,0,.2.48A0.79,0.79,0,0,0,497,299.5Z"/>
        <path class="cls-4" d="M499.51,298.06a2.25,2.25,0,0,1,.22-1,1.64,1.64,0,0,1,.61-0.69,1.67,1.67,0,0,1,.9-0.24,1.61,1.61,0,0,1,1.26.54,2.08,2.08,0,0,1,.48,1.44v0a2.27,2.27,0,0,1-.21,1,1.63,1.63,0,0,1-.61.69,1.69,1.69,0,0,1-.91.25,1.61,1.61,0,0,1-1.26-.54,2.07,2.07,0,0,1-.48-1.43v0Zm0.66,0.08a1.63,1.63,0,0,0,.29,1,1,1,0,0,0,1.58,0,1.79,1.79,0,0,0,.29-1.09,1.63,1.63,0,0,0-.3-1,1,1,0,0,0-.79-0.39,0.94,0.94,0,0,0-.78.38A1.77,1.77,0,0,0,500.17,298.14Z"/>
      </g>
      <g>
        <path class="cls-4" d="M495.76,339l1.47-4.24H498l-1.91,5.14h-0.6l-1.9-5.14h0.74Z"/>
        <path class="cls-4" d="M498.56,335.06a0.39,0.39,0,0,1,.1-0.27,0.36,0.36,0,0,1,.29-0.11,0.37,0.37,0,0,1,.29.11,0.39,0.39,0,0,1,.1.27,0.35,0.35,0,0,1-.39.37,0.37,0.37,0,0,1-.29-0.11A0.38,0.38,0,0,1,498.56,335.06Zm0.71,4.83h-0.65v-3.82h0.65v3.82Z"/>
        <path class="cls-4" d="M501.2,335.15v0.92h0.71v0.5H501.2v2.37a0.53,0.53,0,0,0,.1.34,0.4,0.4,0,0,0,.32.11,1.58,1.58,0,0,0,.31,0v0.53a1.9,1.9,0,0,1-.5.07,0.81,0.81,0,0,1-.66-0.27,1.13,1.13,0,0,1-.22-0.75v-2.37h-0.7v-0.5h0.7v-0.92h0.65Z"/>
        <path class="cls-4" d="M502.43,337.95a2.25,2.25,0,0,1,.22-1,1.64,1.64,0,0,1,.61-0.69,1.67,1.67,0,0,1,.9-0.24,1.61,1.61,0,0,1,1.26.54,2.08,2.08,0,0,1,.48,1.44v0a2.27,2.27,0,0,1-.21,1,1.63,1.63,0,0,1-.61.69,1.69,1.69,0,0,1-.91.25,1.61,1.61,0,0,1-1.26-.54,2.07,2.07,0,0,1-.48-1.43v0Zm0.66,0.08a1.63,1.63,0,0,0,.29,1,1,1,0,0,0,1.58,0,1.79,1.79,0,0,0,.29-1.09,1.63,1.63,0,0,0-.3-1,1,1,0,0,0-.79-0.39,0.94,0.94,0,0,0-.78.38A1.77,1.77,0,0,0,503.08,338Z"/>
        <path class="cls-4" d="M508.57,336.66l-0.32,0a0.86,0.86,0,0,0-.87.55v2.71h-0.65v-3.82h0.64v0.44a1,1,0,0,1,.91-0.51,0.66,0.66,0,0,1,.29,0v0.61Z"/>
        <path class="cls-4" d="M509.17,335.06a0.39,0.39,0,0,1,.1-0.27,0.36,0.36,0,0,1,.29-0.11,0.37,0.37,0,0,1,.29.11,0.39,0.39,0,0,1,.1.27,0.35,0.35,0,0,1-.39.37,0.37,0.37,0,0,1-.29-0.11A0.38,0.38,0,0,1,509.17,335.06Zm0.71,4.83h-0.65v-3.82h0.65v3.82Z"/>
        <path class="cls-4" d="M513.28,339.89a1.39,1.39,0,0,1-.09-0.4,1.46,1.46,0,0,1-1.09.47,1.35,1.35,0,0,1-.93-0.32,1,1,0,0,1-.36-0.81,1.08,1.08,0,0,1,.45-0.93,2.14,2.14,0,0,1,1.28-.33h0.63v-0.3a0.73,0.73,0,0,0-.2-0.55,0.82,0.82,0,0,0-.6-0.2,1,1,0,0,0-.59.18,0.52,0.52,0,0,0-.24.43h-0.66a0.9,0.9,0,0,1,.2-0.55,1.39,1.39,0,0,1,.55-0.42,1.85,1.85,0,0,1,.76-0.16,1.51,1.51,0,0,1,1,.33,1.19,1.19,0,0,1,.39.91V339a2.16,2.16,0,0,0,.13.84v0.06h-0.68Zm-1.08-.5a1.15,1.15,0,0,0,.58-0.16,1,1,0,0,0,.4-0.41V338h-0.51q-1.2,0-1.2.7a0.59,0.59,0,0,0,.2.48A0.79,0.79,0,0,0,512.2,339.39Z"/>
      </g>
      <g>
        <path class="cls-5" d="M452.18,322a4.14,4.14,0,0,1-.36,1.77,2.7,2.7,0,0,1-1,1.18,3,3,0,0,1-3,0,2.72,2.72,0,0,1-1-1.17,4,4,0,0,1-.37-1.75v-0.34a4.12,4.12,0,0,1,.37-1.78,2.72,2.72,0,0,1,1-1.18,3,3,0,0,1,3,0,2.71,2.71,0,0,1,1,1.18,4.1,4.1,0,0,1,.37,1.78V322Zm-1.43-.31a2.89,2.89,0,0,0-.39-1.64,1.36,1.36,0,0,0-2.2,0,2.86,2.86,0,0,0-.39,1.62V322a2.91,2.91,0,0,0,.39,1.63,1.35,1.35,0,0,0,2.2,0,2.9,2.9,0,0,0,.39-1.63v-0.33Z"/>
        <path class="cls-5" d="M456,321.48a3.65,3.65,0,0,0-.49,0,1,1,0,0,0-1,.52v3.33h-1.36V320.2h1.28l0,0.61a1.26,1.26,0,0,1,1.13-.7,1.43,1.43,0,0,1,.42.06Z"/>
        <path class="cls-5" d="M456.33,322.71a3.07,3.07,0,0,1,.53-1.9,1.73,1.73,0,0,1,1.46-.71,1.56,1.56,0,0,1,1.23.56v-2.6h1.36v7.23H459.7l-0.07-.54a1.6,1.6,0,0,1-1.31.64,1.73,1.73,0,0,1-1.44-.71A3.17,3.17,0,0,1,456.33,322.71Zm1.36,0.1a2,2,0,0,0,.25,1.1,0.81,0.81,0,0,0,.72.38,0.91,0.91,0,0,0,.89-0.53v-2a0.9,0.9,0,0,0-.88-0.53Q457.69,321.21,457.7,322.81Z"/>
        <path class="cls-5" d="M465,324.78a1.71,1.71,0,0,1-1.39.61,1.61,1.61,0,0,1-1.25-.47,2,2,0,0,1-.44-1.38V320.2h1.36v3.29a0.67,0.67,0,0,0,.72.8,1,1,0,0,0,1-.48V320.2h1.37v5.09h-1.28Z"/>
        <path class="cls-5" d="M468.62,320.2l0,0.59a1.78,1.78,0,0,1,1.46-.68,1.48,1.48,0,0,1,1.2.48,2.22,2.22,0,0,1,.41,1.42v3.29h-1.36V322a0.88,0.88,0,0,0-.19-0.63,0.84,0.84,0,0,0-.62-0.2,0.94,0.94,0,0,0-.86.49v3.6h-1.36V320.2h1.28Zm2.7-2.08a1.32,1.32,0,0,1-.31.89,1,1,0,0,1-.76.36,1.14,1.14,0,0,1-.32,0,2.09,2.09,0,0,1-.38-0.17,2.08,2.08,0,0,0-.35-0.16,0.85,0.85,0,0,0-.23,0,0.38,0.38,0,0,0-.28.12,0.46,0.46,0,0,0-.12.33l-0.79,0a1.33,1.33,0,0,1,.31-0.89,1,1,0,0,1,.75-0.37,1,1,0,0,1,.27,0,2.86,2.86,0,0,1,.41.17,2.58,2.58,0,0,0,.39.16,0.88,0.88,0,0,0,.23,0,0.4,0.4,0,0,0,.28-0.12,0.44,0.44,0,0,0,.12-0.33Z"/>
        <path class="cls-5" d="M475.72,325.3a1.52,1.52,0,0,1-.14-0.46,1.65,1.65,0,0,1-1.29.55,1.81,1.81,0,0,1-1.24-.43,1.39,1.39,0,0,1-.49-1.09,1.44,1.44,0,0,1,.6-1.24,3,3,0,0,1,1.73-.44h0.63v-0.29a0.84,0.84,0,0,0-.18-0.56,0.71,0.71,0,0,0-.57-0.21,0.81,0.81,0,0,0-.54.16,0.56,0.56,0,0,0-.2.45h-1.36a1.36,1.36,0,0,1,.27-0.82,1.8,1.8,0,0,1,.77-0.59,2.81,2.81,0,0,1,1.12-.21,2.22,2.22,0,0,1,1.49.47,1.65,1.65,0,0,1,.55,1.33v2.21a2.44,2.44,0,0,0,.2,1.1v0.08h-1.37Zm-1.12-.95a1.17,1.17,0,0,0,.55-0.13,0.88,0.88,0,0,0,.38-0.36V323H475a0.88,0.88,0,0,0-1.09.71v0.08a0.54,0.54,0,0,0,.18.42A0.7,0.7,0,0,0,474.59,324.35Z"/>
      </g>
      <g>
        <path class="cls-4" d="M544,300a3.18,3.18,0,0,1-1.27-.62,1.18,1.18,0,0,1-.4-0.9,1.24,1.24,0,0,1,.49-1,1.93,1.93,0,0,1,1.26-.4,2.11,2.11,0,0,1,.94.2,1.55,1.55,0,0,1,.64.56,1.45,1.45,0,0,1,.23.79h-0.68a0.94,0.94,0,0,0-.3-0.74,1.21,1.21,0,0,0-.84-0.27,1.23,1.23,0,0,0-.78.22,0.74,0.74,0,0,0-.28.61,0.66,0.66,0,0,0,.27.53,2.62,2.62,0,0,0,.91.4,4.23,4.23,0,0,1,1,.4,1.52,1.52,0,0,1,.54.51,1.3,1.3,0,0,1,.17.68,1.2,1.2,0,0,1-.49,1,2.08,2.08,0,0,1-1.3.38,2.41,2.41,0,0,1-1-.2,1.66,1.66,0,0,1-.71-0.56,1.35,1.35,0,0,1-.25-0.8h0.68a0.88,0.88,0,0,0,.34.74,1.45,1.45,0,0,0,.92.27,1.34,1.34,0,0,0,.82-0.22,0.71,0.71,0,0,0,.29-0.6,0.7,0.7,0,0,0-.26-0.58A3,3,0,0,0,544,300Z"/>
        <path class="cls-4" d="M549,302.29a1.39,1.39,0,0,1-.09-0.4,1.46,1.46,0,0,1-1.09.47,1.35,1.35,0,0,1-.93-0.32,1,1,0,0,1-.36-0.81,1.08,1.08,0,0,1,.45-0.93,2.14,2.14,0,0,1,1.28-.33h0.63v-0.3a0.73,0.73,0,0,0-.2-0.55,0.82,0.82,0,0,0-.6-0.2,1,1,0,0,0-.59.18,0.52,0.52,0,0,0-.24.43h-0.66a0.9,0.9,0,0,1,.2-0.55,1.39,1.39,0,0,1,.55-0.42,1.85,1.85,0,0,1,.76-0.16,1.51,1.51,0,0,1,1,.33,1.19,1.19,0,0,1,.39.91v1.76a2.16,2.16,0,0,0,.13.84v0.06H549Zm-1.08-.5a1.15,1.15,0,0,0,.58-0.16,1,1,0,0,0,.4-0.41v-0.78h-0.51q-1.2,0-1.2.7a0.59,0.59,0,0,0,.2.48A0.79,0.79,0,0,0,548,301.79Z"/>
        <path class="cls-4" d="M551.23,298.47l0,0.48a1.39,1.39,0,0,1,1.14-.55,1.15,1.15,0,0,1,1.22,1.37v2.52H553v-2.53a0.88,0.88,0,0,0-.19-0.61,0.76,0.76,0,0,0-.58-0.2,0.94,0.94,0,0,0-.56.17,1.14,1.14,0,0,0-.37.44v2.72h-0.65v-3.82h0.62Z"/>
        <path class="cls-4" d="M558,300a3.18,3.18,0,0,1-1.27-.62,1.18,1.18,0,0,1-.4-0.9,1.24,1.24,0,0,1,.49-1,1.93,1.93,0,0,1,1.26-.4,2.11,2.11,0,0,1,.94.2,1.55,1.55,0,0,1,.64.56,1.45,1.45,0,0,1,.23.79h-0.68a0.94,0.94,0,0,0-.3-0.74,1.21,1.21,0,0,0-.84-0.27,1.23,1.23,0,0,0-.78.22,0.74,0.74,0,0,0-.28.61,0.66,0.66,0,0,0,.27.53,2.62,2.62,0,0,0,.91.4,4.23,4.23,0,0,1,1,.4,1.52,1.52,0,0,1,.54.51,1.3,1.3,0,0,1,.17.68,1.2,1.2,0,0,1-.49,1,2.08,2.08,0,0,1-1.3.38,2.41,2.41,0,0,1-1-.2,1.66,1.66,0,0,1-.71-0.56,1.35,1.35,0,0,1-.25-0.8h0.68a0.88,0.88,0,0,0,.34.74,1.45,1.45,0,0,0,.92.27,1.34,1.34,0,0,0,.82-0.22,0.71,0.71,0,0,0,.29-0.6,0.7,0.7,0,0,0-.26-0.58A3,3,0,0,0,558,300Z"/>
        <path class="cls-4" d="M562.26,302.36a1.67,1.67,0,0,1-1.26-.51,1.89,1.89,0,0,1-.49-1.36v-0.12a2.3,2.3,0,0,1,.22-1,1.7,1.7,0,0,1,.61-0.7,1.53,1.53,0,0,1,.85-0.25,1.43,1.43,0,0,1,1.16.49,2.12,2.12,0,0,1,.41,1.4v0.27h-2.59a1.35,1.35,0,0,0,.33.91,1,1,0,0,0,.8.35,1.14,1.14,0,0,0,.59-0.14,1.47,1.47,0,0,0,.42-0.37l0.4,0.31A1.6,1.6,0,0,1,562.26,302.36Zm-0.08-3.42a0.87,0.87,0,0,0-.66.29,1.4,1.4,0,0,0-.33.81h1.91v0a1.25,1.25,0,0,0-.27-0.77A0.82,0.82,0,0,0,562.18,298.93Z"/>
        <path class="cls-4" d="M567.74,300.42a2.28,2.28,0,0,1-.4,1.41,1.29,1.29,0,0,1-1.08.53,1.33,1.33,0,0,1-1.12-.51l0,0.44h-0.6v-5.42h0.65v2a1.32,1.32,0,0,1,1.09-.49,1.29,1.29,0,0,1,1.09.53,2.34,2.34,0,0,1,.4,1.44v0.06Zm-0.65-.07a1.76,1.76,0,0,0-.26-1,0.85,0.85,0,0,0-.74-0.36,1,1,0,0,0-.93.6v1.65a1,1,0,0,0,.93.6,0.85,0.85,0,0,0,.73-0.36A1.87,1.87,0,0,0,567.09,300.35Z"/>
        <path class="cls-4" d="M570.92,302.29a1.39,1.39,0,0,1-.09-0.4,1.46,1.46,0,0,1-1.09.47,1.35,1.35,0,0,1-.93-0.32,1,1,0,0,1-.36-0.81,1.08,1.08,0,0,1,.45-0.93,2.14,2.14,0,0,1,1.28-.33h0.63v-0.3a0.73,0.73,0,0,0-.2-0.55,0.82,0.82,0,0,0-.6-0.2,1,1,0,0,0-.59.18,0.52,0.52,0,0,0-.24.43h-0.66a0.9,0.9,0,0,1,.2-0.55,1.39,1.39,0,0,1,.55-0.42,1.85,1.85,0,0,1,.76-0.16,1.51,1.51,0,0,1,1,.33,1.19,1.19,0,0,1,.39.91v1.76a2.16,2.16,0,0,0,.13.84v0.06h-0.68Zm-1.08-.5a1.15,1.15,0,0,0,.58-0.16,1,1,0,0,0,.4-0.41v-0.78h-0.51q-1.2,0-1.2.7a0.59,0.59,0,0,0,.2.48A0.79,0.79,0,0,0,569.84,301.79Z"/>
        <path class="cls-4" d="M574.72,301.27a0.48,0.48,0,0,0-.2-0.41,1.92,1.92,0,0,0-.7-0.25,3.3,3.3,0,0,1-.79-0.25,1.11,1.11,0,0,1-.43-0.35,0.84,0.84,0,0,1-.14-0.49,1,1,0,0,1,.4-0.79,1.55,1.55,0,0,1,1-.32,1.6,1.6,0,0,1,1.05.34,1.07,1.07,0,0,1,.4.86h-0.66a0.59,0.59,0,0,0-.23-0.46,0.85,0.85,0,0,0-.57-0.19,0.89,0.89,0,0,0-.56.16,0.49,0.49,0,0,0-.2.41,0.4,0.4,0,0,0,.19.36,2.3,2.3,0,0,0,.68.23,3.56,3.56,0,0,1,.79.26,1.16,1.16,0,0,1,.45.37,0.9,0.9,0,0,1,.15.52,1,1,0,0,1-.41.82,1.72,1.72,0,0,1-1.06.31,1.92,1.92,0,0,1-.81-0.16,1.32,1.32,0,0,1-.55-0.45,1.09,1.09,0,0,1-.2-0.63H573a0.68,0.68,0,0,0,.26.52,1,1,0,0,0,.65.19,1.05,1.05,0,0,0,.59-0.15A0.46,0.46,0,0,0,574.72,301.27Z"/>
        <path class="cls-4" d="M577.11,297.54v0.92h0.71V299h-0.71v2.37a0.53,0.53,0,0,0,.1.34,0.4,0.4,0,0,0,.32.11,1.58,1.58,0,0,0,.31,0v0.53a1.9,1.9,0,0,1-.5.07,0.81,0.81,0,0,1-.66-0.27,1.13,1.13,0,0,1-.22-0.75V299h-0.7v-0.5h0.7v-0.92h0.65Z"/>
        <path class="cls-4" d="M578.59,297.45a0.39,0.39,0,0,1,.1-0.27,0.36,0.36,0,0,1,.29-0.11,0.37,0.37,0,0,1,.29.11,0.39,0.39,0,0,1,.1.27,0.35,0.35,0,0,1-.39.37,0.37,0.37,0,0,1-.29-0.11A0.38,0.38,0,0,1,578.59,297.45Zm0.71,4.83h-0.65v-3.82h0.65v3.82Z"/>
        <path class="cls-4" d="M582.69,302.29a1.39,1.39,0,0,1-.09-0.4,1.46,1.46,0,0,1-1.09.47,1.35,1.35,0,0,1-.93-0.32,1,1,0,0,1-.36-0.81,1.08,1.08,0,0,1,.45-0.93A2.14,2.14,0,0,1,582,300h0.63v-0.3a0.73,0.73,0,0,0-.2-0.55,0.82,0.82,0,0,0-.6-0.2,1,1,0,0,0-.59.18,0.52,0.52,0,0,0-.24.43H580.3a0.9,0.9,0,0,1,.2-0.55,1.39,1.39,0,0,1,.55-0.42,1.85,1.85,0,0,1,.76-0.16,1.51,1.51,0,0,1,1,.33,1.19,1.19,0,0,1,.39.91v1.76a2.16,2.16,0,0,0,.13.84v0.06h-0.68Zm-1.08-.5a1.15,1.15,0,0,0,.58-0.16,1,1,0,0,0,.4-0.41v-0.78h-0.51q-1.2,0-1.2.7a0.59,0.59,0,0,0,.2.48A0.79,0.79,0,0,0,581.61,301.79Zm0.6-4.92H583l-0.95,1h-0.53Z"/>
        <path class="cls-4" d="M584.89,298.47l0,0.48a1.39,1.39,0,0,1,1.14-.55,1.15,1.15,0,0,1,1.22,1.37v2.52h-0.65v-2.53a0.88,0.88,0,0,0-.19-0.61,0.76,0.76,0,0,0-.58-0.2,0.94,0.94,0,0,0-.56.17,1.14,1.14,0,0,0-.37.44v2.72h-0.65v-3.82h0.62Z"/>
      </g>
      <path class="cls-5" d="M485.47,315.39c0,1.53-.92,2.89-1.93,4.34-1.62,2.34-1.62,4.71-2.11,4.71s-0.69-2.28-2.3-4.76a8.29,8.29,0,0,1-1.75-4.3A4,4,0,0,1,485.47,315.39Z"/>
      <g>
        <path class="cls-17" d="M501.85,321.35h-3.39v2.31h4v1.42H496.7V316.5h5.73v1.43h-4v2h3.39v1.37Z"/>
        <path class="cls-17" d="M510,316.5v5.64a2.89,2.89,0,0,1-.88,2.22,3.39,3.39,0,0,1-2.4.82,3.43,3.43,0,0,1-2.38-.79,2.84,2.84,0,0,1-.9-2.18V316.5h1.76v5.65a1.63,1.63,0,0,0,.4,1.23,1.55,1.55,0,0,0,1.12.39,1.37,1.37,0,0,0,1.51-1.56v-5.7H510Z"/>
        <path class="cls-17" d="M515.84,322.82a0.91,0.91,0,0,0-.35-0.77,4.6,4.6,0,0,0-1.27-.56,9,9,0,0,1-1.45-.58,2.37,2.37,0,0,1-1.46-2.12,2.07,2.07,0,0,1,.39-1.24,2.55,2.55,0,0,1,1.12-.85,4.22,4.22,0,0,1,1.64-.31,3.85,3.85,0,0,1,1.64.33,2.6,2.6,0,0,1,1.11.94,2.46,2.46,0,0,1,.4,1.38h-1.76a1.16,1.16,0,0,0-.37-0.92,1.52,1.52,0,0,0-1-.33,1.63,1.63,0,0,0-1,.27,0.86,0.86,0,0,0-.36.72,0.83,0.83,0,0,0,.42.7,4.75,4.75,0,0,0,1.24.53,5.36,5.36,0,0,1,2.19,1.12,2.24,2.24,0,0,1,.69,1.67,2.06,2.06,0,0,1-.84,1.74,3.69,3.69,0,0,1-2.26.63,4.37,4.37,0,0,1-1.8-.36,2.85,2.85,0,0,1-1.24-1,2.54,2.54,0,0,1-.43-1.46h1.77q0,1.42,1.69,1.42a1.65,1.65,0,0,0,1-.26A0.83,0.83,0,0,0,515.84,322.82Z"/>
        <path class="cls-17" d="M521.49,321.63l-0.92,1v2.45h-1.76V316.5h1.76v3.88l0.78-1.06,2.18-2.82h2.17l-3,3.81,3.13,4.76h-2.1Z"/>
        <path class="cls-17" d="M531.29,323.3H528.2l-0.59,1.76h-1.88l3.19-8.56h1.64l3.21,8.56h-1.88Zm-2.62-1.43h2.14l-1.08-3.21Z"/>
        <path class="cls-17" d="M534.56,325.07V316.5h2.64a4,4,0,0,1,2,.51,3.55,3.55,0,0,1,1.39,1.45,4.46,4.46,0,0,1,.5,2.13V321a4.47,4.47,0,0,1-.49,2.12,3.52,3.52,0,0,1-1.38,1.44,4,4,0,0,1-2,.52h-2.65Zm1.76-7.14v5.72h0.85a1.92,1.92,0,0,0,1.58-.68,3.06,3.06,0,0,0,.56-1.94v-0.45a3.11,3.11,0,0,0-.54-2,1.91,1.91,0,0,0-1.58-.67h-0.87Z"/>
        <path class="cls-17" d="M544.27,325.07H542.5V316.5h1.76v8.56Z"/>
      </g>
    </g>
    <path class="cls-18" d="M459.84,307.21c-57.19-14-74.52,32.22-74.52,32.22l5.46,2.5-15.24,8.32-6.59-18.32,5.46,2.5S405.7,277.55,459.84,307.21Z"/>
    <g>
      <path class="cls-17" d="M737,79.46H733.1v4.07H731v-10h6.48v1.66H733.1v2.57H737v1.65Z"/>
      <path class="cls-17" d="M742.4,79.89h-1.63v3.64h-2.05v-10h3.7a4.18,4.18,0,0,1,2.72.79,2.71,2.71,0,0,1,1,2.22,3.07,3.07,0,0,1-.44,1.7,3,3,0,0,1-1.34,1.08l2.15,4.07v0.1h-2.2Zm-1.63-1.66h1.65a1.69,1.69,0,0,0,1.2-.39,1.41,1.41,0,0,0,.42-1.08,1.51,1.51,0,0,0-.4-1.11,1.66,1.66,0,0,0-1.23-.4h-1.65v3Z"/>
      <path class="cls-17" d="M753.27,81.48h-3.6L749,83.53h-2.18l3.71-10h1.9l3.73,10H754Zm-3-1.66h2.49l-1.25-3.73Z"/>
      <path class="cls-17" d="M765.17,83.53h-2.05l-4-6.55v6.55h-2.05v-10h2.05l4,6.56V73.58h2v10Z"/>
      <path class="cls-17" d="M774.77,80.21a3.52,3.52,0,0,1-1.19,2.53,4.16,4.16,0,0,1-2.82.92,3.74,3.74,0,0,1-3-1.29,5.28,5.28,0,0,1-1.1-3.54V78.23a6,6,0,0,1,.51-2.53A3.79,3.79,0,0,1,768.61,74a4.52,4.52,0,0,1,5,.34A3.78,3.78,0,0,1,774.78,77h-2.05a2.08,2.08,0,0,0-.54-1.4,2,2,0,0,0-1.41-.43,1.74,1.74,0,0,0-1.53.73,4.11,4.11,0,0,0-.52,2.28v0.75a4.41,4.41,0,0,0,.49,2.36,1.71,1.71,0,0,0,1.54.75,2,2,0,0,0,1.42-.43,2,2,0,0,0,.54-1.34h2.05Z"/>
      <path class="cls-17" d="M778.3,83.53h-2.05v-10h2.05v10Z"/>
      <path class="cls-17" d="M785.94,81.48h-3.6l-0.68,2.05h-2.18l3.71-10h1.9l3.73,10h-2.18Zm-3-1.66h2.49l-1.25-3.73Z"/>
    </g>
    <g>
      <path class="cls-17" d="M554.26,210.1v3.51h-2.05v-10h3.88a4.5,4.5,0,0,1,2,.41,3,3,0,0,1,1.31,1.17,3.25,3.25,0,0,1,.46,1.72,2.86,2.86,0,0,1-1,2.31,4.17,4.17,0,0,1-2.77.84h-1.8Zm0-1.66h1.83a1.8,1.8,0,0,0,1.24-.38,1.39,1.39,0,0,0,.43-1.09,1.64,1.64,0,0,0-.43-1.18,1.61,1.61,0,0,0-1.19-.46h-1.88v3.12Z"/>
      <path class="cls-17" d="M569.42,208.86a6,6,0,0,1-.52,2.58,3.91,3.91,0,0,1-1.49,1.71,4.39,4.39,0,0,1-4.43,0,4,4,0,0,1-1.5-1.7,5.84,5.84,0,0,1-.54-2.54v-0.49a6,6,0,0,1,.53-2.59,4,4,0,0,1,1.5-1.72,4.39,4.39,0,0,1,4.42,0,4,4,0,0,1,1.5,1.72,6,6,0,0,1,.53,2.58v0.44Zm-2.08-.45a4.19,4.19,0,0,0-.56-2.38,2,2,0,0,0-3.19,0,4.14,4.14,0,0,0-.57,2.35v0.49a4.24,4.24,0,0,0,.56,2.37,2,2,0,0,0,3.2,0,4.22,4.22,0,0,0,.56-2.36v-0.49Z"/>
      <path class="cls-17" d="M574.59,210H573v3.64h-2.05v-10h3.7a4.18,4.18,0,0,1,2.72.79,2.71,2.71,0,0,1,1,2.22,3.07,3.07,0,0,1-.44,1.7,3,3,0,0,1-1.34,1.08l2.15,4.07v0.1h-2.2ZM573,208.31h1.65a1.69,1.69,0,0,0,1.2-.39,1.41,1.41,0,0,0,.42-1.08,1.51,1.51,0,0,0-.4-1.11,1.66,1.66,0,0,0-1.23-.4H573v3Z"/>
      <path class="cls-17" d="M587,205.32h-3v8.29h-2.05v-8.29h-3v-1.66H587v1.66Z"/>
      <path class="cls-17" d="M595.69,203.66v6.56a3.36,3.36,0,0,1-1,2.58,3.94,3.94,0,0,1-2.79,1,4,4,0,0,1-2.77-.92,3.3,3.3,0,0,1-1-2.54v-6.63h2.05v6.57a1.89,1.89,0,0,0,.47,1.43,1.8,1.8,0,0,0,1.29.45,1.6,1.6,0,0,0,1.76-1.82v-6.62h2.06Z"/>
      <path class="cls-17" d="M605.25,212.35a3.56,3.56,0,0,1-1.57,1,6.56,6.56,0,0,1-2.24.37,4.45,4.45,0,0,1-2.27-.56,3.77,3.77,0,0,1-1.5-1.64,5.77,5.77,0,0,1-.54-2.52v-0.68a6.13,6.13,0,0,1,.5-2.58,3.72,3.72,0,0,1,1.45-1.67,4.77,4.77,0,0,1,5,.27,3.61,3.61,0,0,1,1.18,2.46h-2a2,2,0,0,0-.61-1.25,1.93,1.93,0,0,0-1.29-.4,1.82,1.82,0,0,0-1.59.79,4.14,4.14,0,0,0-.55,2.34v0.64a3.94,3.94,0,0,0,.59,2.37,2,2,0,0,0,1.74.8,2.27,2.27,0,0,0,1.65-.49v-1.72h-1.87v-1.51h3.92v4Z"/>
      <path class="cls-17" d="M612.53,211.56h-3.6l-0.68,2.05h-2.18l3.71-10h1.9l3.73,10h-2.18Zm-3-1.66H612l-1.25-3.73Z"/>
      <path class="cls-17" d="M618.38,212h4.35v1.65h-6.41v-10h2.05V212Z"/>
    </g>
    <g>
      <path class="cls-17" d="M652,192.65H648v2.68h4.62V197H646V187h6.66v1.66H648v2.37H652v1.59Z"/>
      <path class="cls-17" d="M659,194.37a1.05,1.05,0,0,0-.41-0.89,5.37,5.37,0,0,0-1.48-.66,10.48,10.48,0,0,1-1.69-.68,2.76,2.76,0,0,1-1.7-2.47,2.4,2.4,0,0,1,.46-1.44,3,3,0,0,1,1.3-1,4.92,4.92,0,0,1,1.91-.36,4.47,4.47,0,0,1,1.9.39,3,3,0,0,1,1.3,1.09,2.86,2.86,0,0,1,.46,1.6H659a1.34,1.34,0,0,0-.43-1.06,1.77,1.77,0,0,0-1.21-.38,1.89,1.89,0,0,0-1.17.32,1,1,0,0,0-.42.84,1,1,0,0,0,.49.81,5.53,5.53,0,0,0,1.44.62,6.22,6.22,0,0,1,2.55,1.31,2.6,2.6,0,0,1,.8,1.94,2.4,2.4,0,0,1-1,2,4.28,4.28,0,0,1-2.63.73,5.08,5.08,0,0,1-2.09-.42,3.31,3.31,0,0,1-1.44-1.15,3,3,0,0,1-.5-1.7h2.06q0,1.65,2,1.65a1.92,1.92,0,0,0,1.14-.3A1,1,0,0,0,659,194.37Z"/>
      <path class="cls-17" d="M664.51,193.47V197h-2.05V187h3.88a4.5,4.5,0,0,1,2,.41,3,3,0,0,1,1.31,1.17,3.25,3.25,0,0,1,.46,1.72,2.86,2.86,0,0,1-1,2.31,4.17,4.17,0,0,1-2.77.84h-1.8Zm0-1.66h1.83a1.8,1.8,0,0,0,1.24-.38,1.39,1.39,0,0,0,.43-1.09,1.64,1.64,0,0,0-.43-1.18,1.61,1.61,0,0,0-1.19-.46h-1.88v3.12Z"/>
      <path class="cls-17" d="M675.89,194.93h-3.6L671.61,197h-2.18l3.71-10H675l3.73,10h-2.18Zm-3-1.66h2.49l-1.25-3.73Z"/>
      <path class="cls-17" d="M687.78,197h-2.05l-4-6.55V197h-2.05V187h2.05l4,6.56V187h2v10Zm-1.45-12.52a1.91,1.91,0,0,1-.45,1.3,1.4,1.4,0,0,1-1.1.52,1.68,1.68,0,0,1-.46-0.06,3.13,3.13,0,0,1-.56-0.25,3.06,3.06,0,0,0-.51-0.24,1.25,1.25,0,0,0-.34,0,0.55,0.55,0,0,0-.41.17,0.67,0.67,0,0,0-.17.49l-1.15-.07a1.94,1.94,0,0,1,.45-1.29,1.38,1.38,0,0,1,1.1-.53,1.41,1.41,0,0,1,.39.05,4.22,4.22,0,0,1,.59.25,3.84,3.84,0,0,0,.57.24,1.29,1.29,0,0,0,.33,0,0.57,0.57,0,0,0,.41-0.17,0.63,0.63,0,0,0,.17-0.48Z"/>
      <path class="cls-17" d="M695.32,194.93h-3.6L691,197h-2.18l3.71-10h1.9l3.73,10H696Zm-3-1.66h2.49l-1.25-3.73Z"/>
    </g>
    <circle class="cls-19" cx="685.39" cy="140.5" r="17.25"/>
    <polyline class="cls-19" points="508.57 225.7 508.57 140.5 666.85 140.5"/>
  </g>
</svg>
