<svg id="Capa_1" data-name="Capa 1" xmlns="http://www.w3.org/2000/svg" xmlns:xlink="http://www.w3.org/1999/xlink" width="204.31" height="107.81" viewBox="0 0 204.31 107.81">
  <defs>
    <style>
      .cls-1 {
        fill: none;
      }

      .cls-2 {
        clip-path: url(#clip-path);
      }

      .cls-3 {
        fill: #87dadf;
      }

      .cls-4 {
        fill: #26cad3;
      }

      .cls-5 {
        fill: #aaad00;
      }

      .cls-6 {
        fill: #caa977;
      }

      .cls-7 {
        fill: #a03123;
      }

      .cls-10, .cls-8 {
        fill: #221e20;
      }

      .cls-9 {
        fill: #717271;
      }

      .cls-10 {
        fill-rule: evenodd;
      }
    </style>
    <clipPath id="clip-path">
      <rect class="cls-1" x="89.18" y="65.27" width="110.25" height="9.01"/>
    </clipPath>
  </defs>
  <title>orduna-header</title>
  <g>
    <g class="cls-2">
      <polygon class="cls-3" points="160.28 61.77 177.59 61.77 183.36 78.11 151.71 78.11 160.28 61.77"/>
      <polygon class="cls-4" points="204.31 61.77 201.94 78.11 183.36 78.11 177.5 61.77 204.31 61.77"/>
      <polygon class="cls-5" points="108.38 61.77 110 78.11 87.49 78.11 88.17 61.77 108.38 61.77"/>
      <polygon class="cls-6" points="108.34 61.77 109.96 78.11 133.85 78.11 128.16 62.11 108.34 61.77"/>
      <polygon class="cls-7" points="160.37 61.77 151.8 78.11 133.76 78.11 127.99 61.77 160.37 61.77"/>
    </g>
    <path class="cls-8" d="M38.39,1.1a1.11,1.11,0,1,1,1.37,1.07L40,2.23l0.31,8.18c0,3.48,2.35,2.08,1.13,5.38,0,0,1.3.69,1.3,0.69V18.8l-1.36.46c0,1.45,2,1.82,2.06,3.22a2.3,2.3,0,0,1-.38,1.7h1.66v1.19l-1.17.48v2.66L48.09,30v2.63l-4.22,1.6v4.27c0.77,0.09,1.52.2,2.26,0.33l18.28,1.27v1.69l-2.15.3,0,4.9a35.31,35.31,0,0,1,10.4,22.37l-21.29-.11c-0.21-14.28-2.08-21-12.17-21s-11.49,6.69-11.64,21H6.64a35.35,35.35,0,0,1,10.08-22l0-5.19-2.15-.3V40.09l18.78-1.31q0.87-.15,1.76-0.26V34.21l-4.22-1.6V30l4.59-1.46V25.86l-1.17-.48V24.19H36a2.3,2.3,0,0,1-.39-1.7c0.07-1.4,2.06-1.78,2.06-3.22l-1.36-.46V16.48s1.26-.7,1.3-0.69c-1.22-3.3,1.08-1.9,1.13-5.38L39,2.23l0.19-.06a1.1,1.1,0,0,1-.83-1.07"/>
    <path class="cls-9" d="M79.3,69.24V72.8H72.83V73c0,18.42-12.6,34.78-33.18,34.78S6.46,91.45,6.46,73V72.8H0V69.19l27.58,0.05c0,1.08,0,2.33,0,3.5,0,25.07,1.09,32.83,11.92,32.83s11.92-7.76,11.92-32.83c0-1.12,0-2.45,0-3.5H79.3"/>
    <path class="cls-10" d="M165.61,81.43V78.69h9.3v2.74h-9.3Zm22,11.88,2-4.94,1.94,4.94h-3.9Zm-7.72,6.85h5.07l1.24-3.11h6.7l1.26,3.11h5.17l-7.4-17.51h-4.64Zm-17.36,0h4.77V90.63l7.42,9.53h4.22V82.78h-4.77V92L167,82.78h-4.5v17.38Zm-9.85.32c4.94,0,8.14-2.46,8.14-8.07V82.78h-4.89v9.79c0,2.43-1.27,3.57-3.21,3.57s-3.2-1.19-3.2-3.7V82.78h-4.89v9.76C144.61,98,147.72,100.49,152.66,100.49Zm-21.37-4.6V87.06h2c2.88,0,4.79,1.62,4.79,4.39s-1.91,4.45-4.79,4.45h-2Zm-4.81,4.27h6.6c6.26,0,9.91-3.72,9.91-8.74s-3.6-8.64-9.81-8.64h-6.7v17.38Zm-11.89-9V87h3.16c1.62,0,2.61.69,2.61,2.06s-0.94,2.11-2.58,2.11h-3.18Zm-4.81,9h4.81V94.9h2.06l3.55,5.27h5.56l-4.15-6.06a5.49,5.49,0,0,0,3.57-5.34,5.42,5.42,0,0,0-1.54-4.09c-1.17-1.19-3-1.89-5.66-1.89h-8.22v17.38Zm-11.21-4a4.51,4.51,0,0,1-4.45-4.69,4.44,4.44,0,0,1,4.39-4.69A4.52,4.52,0,0,1,103,91.47,4.45,4.45,0,0,1,98.56,96.17Zm-0.05,4.35a9,9,0,1,0-9.33-9A9.11,9.11,0,0,0,98.51,100.52Z"/>
    <path class="cls-10" d="M97.22,59.65c4.94,0,8.14-2.46,8.14-8.07V41.95h-4.89v9.78c0,2.43-1.27,3.58-3.2,3.58s-3.2-1.19-3.2-3.7V41.95H89.18v9.76c0,5.44,3.1,7.95,8,7.95m10.72-.32h4.82V54.07h2.06l3.55,5.26h5.56l-4.15-6.06a5.5,5.5,0,0,0,3.57-5.34,5.42,5.42,0,0,0-1.54-4.1c-1.17-1.19-3-1.89-5.66-1.89h-8.22V59.33Zm4.82-9V46.12h3.15c1.61,0,2.61.7,2.61,2.06s-0.95,2.11-2.58,2.11h-3.18Zm12.24,9h6.6c6.26,0,9.91-3.73,9.91-8.74s-3.6-8.64-9.81-8.64H125V59.33Zm4.82-4.27V46.22h2c2.88,0,4.79,1.61,4.79,4.4s-1.91,4.44-4.79,4.44h-2Zm21.72,4.6c4.94,0,8.14-2.46,8.14-8.07V41.95H154.8v9.78c0,2.43-1.26,3.58-3.2,3.58s-3.2-1.19-3.2-3.7V41.95h-4.9v9.76C143.5,57.15,146.6,59.65,151.54,59.65Zm10.73-.32H167V49.79l7.42,9.54h4.22V41.95h-4.77v9.19l-7.15-9.19h-4.49V59.33Zm17.72,0H185l1.24-3.11H193l1.27,3.11h5.17L192,41.82h-4.64Zm7.72-6.85,2-4.94,1.94,4.94h-3.9Zm-22-11.88V37.85h9.3v2.74h-9.3Z"/>
  </g>
</svg>
